<svg width="51" height="45" viewBox="0 0 51 45" fill="none" xmlns="http://www.w3.org/2000/svg">
<g clip-path="url(#clip0_558_273)">
<path d="M40.4227 28.832C40.9465 28.2305 41.3638 27.7644 41.77 27.2872C42.7222 26.1708 43.9008 25.6714 45.3168 26.1996C46.693 26.7146 47.2501 27.8243 47.1702 29.3203C47.4276 29.3913 47.6629 29.4735 47.9049 29.5201C49.2011 29.7798 50.0112 30.5366 50.2531 31.8462C50.4862 33.1002 50.0356 34.099 48.9969 34.8159C46.6286 36.4518 44.2448 38.0654 41.8699 39.6923C39.5549 41.2771 37.2598 42.8863 34.9182 44.4311C34.461 44.7329 33.8306 44.946 33.2935 44.9194C27.9421 44.6486 22.5886 44.3867 17.2483 43.9694C15.3195 43.8185 13.4218 43.2591 11.4908 42.884C10.7272 44.7573 10.3255 44.9682 8.28573 44.4577C6.17936 43.9317 4.073 43.4101 1.97108 42.8641C0.410731 42.4601 -0.199648 40.7111 0.801374 39.4548C0.954523 39.2617 1.44505 39.133 1.64481 39.2351C1.85344 39.3416 2.07984 39.841 1.99328 40.0363C1.43173 41.3193 2.24187 41.5079 3.18518 41.7299C5.33149 42.2359 7.46671 42.7975 9.70624 43.3612C9.81278 43.106 9.95483 42.8596 10.0236 42.5933C11.0979 38.3872 12.1455 34.1723 13.2464 29.9729C13.424 29.2915 13.2664 29.0651 12.6072 28.9097C10.4587 28.4059 8.31236 27.8798 6.19046 27.2761C5.41806 27.0564 5.25159 27.305 5.08956 27.9864C4.4814 30.5255 3.80666 33.0514 3.15411 35.5817C3.09862 35.7948 3.09196 36.0633 2.95435 36.2054C2.69244 36.4762 2.35506 36.6759 2.05099 36.9045C1.90671 36.5716 1.59154 36.2054 1.64703 35.9102C1.8823 34.6828 2.22633 33.4775 2.53485 32.2657C2.961 30.5899 3.38272 28.9119 3.82441 27.2406C4.12627 26.0975 4.79436 25.5737 5.95075 25.8334C8.5321 26.4171 11.0979 27.0763 13.646 27.7933C14.6337 28.0707 14.7779 28.6123 14.6892 30.379C14.7557 30.3746 14.8467 30.399 14.8845 30.3635C17.0619 28.3282 19.4568 28.0663 22.2423 29.0961C25.3097 30.2281 28.4859 31.0671 31.6133 32.0348C33.5177 32.6252 34.4343 34.1456 33.895 35.8103C33.3623 37.4572 31.8352 38.163 29.9575 37.5926C26.8235 36.6426 23.6895 35.6927 20.5776 34.6805C20.2003 34.5585 19.9473 34.0569 19.6388 33.7306C20.0827 33.6129 20.5799 33.3044 20.9594 33.411C24.1423 34.3165 27.3029 35.3042 30.4747 36.2542C31.5556 36.5783 32.3058 36.232 32.5921 35.3176C32.8429 34.5141 32.3591 33.715 31.3536 33.4065C27.5582 32.2413 23.7627 31.0671 19.9429 29.984C19.2881 29.7975 18.3825 29.8131 17.8165 30.1327C16.507 30.8696 15.3262 31.8373 14.1165 32.7429C13.9412 32.876 13.8701 33.1868 13.808 33.4287C13.1399 36.0256 12.4851 38.6247 11.8059 41.3037C14.0055 42.1693 16.2784 42.54 18.5956 42.6843C23.0214 42.9617 27.4494 43.1903 31.8708 43.5188C33.0782 43.6076 34.0548 43.3901 35.0647 42.6776C39.3196 39.6834 43.6366 36.7736 47.927 33.8282C48.917 33.1491 49.1811 32.2768 48.6528 31.5088C48.1534 30.7808 47.3322 30.7053 46.2934 31.2957C43.3126 32.9915 40.3339 34.6872 37.3553 36.383C37.1622 36.4917 36.9735 36.6715 36.7715 36.687C36.3876 36.7181 35.9947 36.656 35.6063 36.6338C35.7727 36.2831 35.8438 35.7792 36.1212 35.6061C37.908 34.5008 39.7413 33.4709 41.5569 32.4144C42.4492 31.895 43.3481 31.3867 44.2337 30.854C44.5156 30.6853 44.7864 30.4834 45.0239 30.257C45.8917 29.4269 46.0093 28.5191 45.3546 27.8465C44.6665 27.1385 43.8297 27.214 42.9464 28.0973C41.1929 29.8463 39.4483 31.6087 37.7015 33.3644C37.5972 33.4687 37.4929 33.573 37.3886 33.6795C36.9979 34.0813 36.5474 34.6228 36.0435 34.0058C35.866 33.7905 36.0702 33.0714 36.3165 32.7407C36.9513 31.8817 37.7015 31.1071 38.414 30.3058C38.9267 29.7287 39.2641 29.0806 38.5871 28.4658C37.9191 27.8598 37.2998 28.2372 36.7649 28.7987C36.2544 29.3336 35.7661 29.9018 35.1868 30.3546C34.9404 30.5477 34.4898 30.4789 34.1347 30.5278C34.148 30.1682 34.0171 29.6821 34.2013 29.469C34.8716 28.6855 35.5907 27.9198 36.3964 27.2805C37.8103 26.1574 39.4417 26.7345 40.4249 28.8298L40.4227 28.832Z" fill="#0056FD"/>
<path d="M10.2967 16.0408C11.6928 18.4601 13.029 20.7774 14.4717 23.2788C15.8967 20.8218 17.2484 18.4912 18.7133 15.9654C17.719 15.9654 16.8555 16.012 16.001 15.9432C15.6459 15.9143 15.3107 15.6324 14.9667 15.466C15.1576 15.153 15.3551 14.8445 15.5349 14.5249C15.7014 14.2252 15.93 13.93 15.9921 13.606C17.0375 8.07261 21.5965 4.417 27.3807 4.49912C32.5567 4.57237 37.1512 8.66745 37.9658 13.9367C38.656 18.398 36.492 22.8815 32.5234 25.2143C28.6303 27.5026 23.6052 27.1608 20.0539 24.3597C19.8519 24.1999 19.5856 24.0512 19.4968 23.8359C19.3836 23.5674 19.2926 23.0591 19.4214 22.9659C19.6611 22.7905 20.0983 22.7328 20.3891 22.826C20.7176 22.9326 20.9639 23.2722 21.2636 23.4852C24.5951 25.8646 28.8345 25.9534 32.277 23.7205C35.6441 21.5365 37.291 17.4281 36.4209 13.3885C35.6152 9.6485 32.4013 6.67207 28.4705 6.02174C23.3744 5.18053 18.4203 8.57201 17.3971 13.6126C17.3461 13.859 17.3905 14.1253 17.3905 14.5071C18.3005 14.5071 19.2172 14.5027 20.1316 14.5071C20.793 14.5116 21.0217 14.7735 20.6599 15.3994C18.7599 18.6888 16.8666 21.9804 14.9645 25.2675C14.6338 25.8402 14.2853 25.7558 13.9857 25.2387C12.0813 21.9537 10.1813 18.6666 8.28583 15.3772C7.9085 14.7224 8.24143 14.5071 8.86291 14.5027C9.63754 14.4982 10.4122 14.5027 11.1291 14.5027C11.5952 12.8336 11.8993 11.1622 12.5185 9.61743C15.1287 3.12744 21.6032 -0.601423 28.9011 0.0799813C35.2623 0.674823 40.9466 5.97513 42.2251 12.5184C42.3516 13.1665 42.4914 13.8346 42.4582 14.4849C42.4382 14.8622 42.0875 15.224 41.8877 15.5925C41.628 15.2618 41.1686 14.9466 41.1375 14.5959C40.789 10.6939 39.2109 7.39787 36.2301 4.87645C31.9863 1.29186 27.1232 0.370743 21.9428 2.32617C16.8178 4.26163 13.7859 8.09259 12.8936 13.546C12.887 13.5816 12.8848 13.6193 12.8781 13.657C12.6828 15.0835 11.8216 15.8781 10.2945 16.0408H10.2967Z" fill="#0056FD"/>
<path d="M23.1084 16.6179C21.5036 13.8323 21.8499 11.8147 24.2847 9.56189C24.4423 9.4154 24.5533 9.21563 24.6732 9.03141C25.7208 7.41779 28.1224 7.31125 29.3032 8.81611C29.5207 9.09578 29.7671 9.38876 30.0645 9.56189C31.9222 10.6539 32.1731 11.7792 30.9146 13.526C30.7858 13.7036 30.6726 13.8922 30.515 14.132C32.0532 15.5702 32.3395 17.3503 31.7513 19.2791C31.5649 19.8895 31.1632 20.4666 30.7437 20.9615C30.1843 21.623 29.5207 22.2001 28.8837 22.7927C27.8782 23.7249 25.7696 23.5651 24.8485 22.5507C24.4423 22.1024 23.9696 21.6918 23.4657 21.3544C21.5702 20.0848 21.3194 18.4912 22.7932 17.0485C22.9219 16.9219 23.0107 16.7555 23.1106 16.6179H23.1084ZM27.1791 22.1623C27.5009 21.8582 27.856 21.5253 28.2045 21.1857C28.3887 21.0059 28.5285 20.7551 28.7461 20.6397C30.0845 19.9383 30.7348 18.8485 30.6194 17.4258C30.4973 15.9032 29.8159 15.0908 28.2467 14.6092C27.9315 14.5115 27.6008 14.4582 27.2878 14.3539C26.7351 14.1697 25.8384 14.1985 26.1359 13.2752C26.4066 12.434 27.2079 12.7114 27.8516 12.8135C27.9936 12.8357 28.1335 12.909 28.2578 12.9867C29.2099 13.566 29.7204 12.9578 30.1044 12.2409C30.5528 11.3997 29.9246 11.0401 29.2854 10.7538C28.7727 10.523 28.2045 10.4475 28.0868 9.68174C28.0558 9.47088 27.3544 9.22895 26.9704 9.24671C26.5953 9.26225 26.1936 9.53969 25.8784 9.79494C25.5477 10.0613 25.3612 10.5141 25.0172 10.7516C23.8075 11.5883 23.4413 12.7691 23.6011 14.132C23.7543 15.4348 24.4978 16.2716 25.8296 16.5402C26.4044 16.6556 26.9926 16.7666 27.532 16.9885C27.7717 17.0884 28.0758 17.4835 28.0402 17.6921C27.9914 17.9762 27.6296 18.4357 27.4321 18.4224C26.764 18.3735 25.9761 18.3247 25.4766 17.9518C24.5799 17.2793 24.1072 17.61 23.5723 18.3291C23.0129 19.0816 23.4302 19.5188 23.994 19.9872C24.6754 20.5531 25.8051 20.5687 26.056 21.7073C26.0937 21.8827 26.6197 21.9492 27.1813 22.169L27.1791 22.1623Z" fill="#0056FD"/>
<path d="M40.8579 20.1604C41.2796 19.732 41.5549 19.4545 41.8301 19.1749C42.0942 19.5011 42.5625 19.8296 42.5625 20.1559C42.5625 20.4844 42.0942 20.8129 41.8301 21.1414C41.5526 20.8617 41.2774 20.5843 40.8579 20.1604Z" fill="#0056FD"/>
<path d="M41.8854 21.9892C42.205 22.4398 42.5269 22.7017 42.5402 22.9769C42.5491 23.1767 42.1229 23.5895 41.9431 23.5629C41.6635 23.5207 41.2595 23.2077 41.2262 22.9658C41.1929 22.7305 41.5614 22.4398 41.8854 21.9914V21.9892Z" fill="#0056FD"/>
<path d="M42.8843 17.328C42.4137 17.6632 42.1318 18.0227 41.8877 17.9983C41.6347 17.9717 41.4171 17.5766 41.1841 17.3435C41.3994 17.1349 41.6102 16.7642 41.8344 16.7576C42.1074 16.7487 42.3915 17.0417 42.8843 17.3302V17.328Z" fill="#0056FD"/>
</g>
<defs>
<clipPath id="clip0_558_273">
<rect width="50" height="44.9194" fill="white" transform="translate(0.312988)"/>
</clipPath>
</defs>
</svg>
