<svg width="61" height="38" viewBox="0 0 61 38" fill="none" xmlns="http://www.w3.org/2000/svg">
<g clip-path="url(#clip0_559_437)">
<path d="M0 6.08338C0.257671 5.65446 0.625325 5.52091 1.12967 5.52876C2.87367 5.55861 4.61766 5.53819 6.36323 5.54133C7.08439 5.54133 7.28865 5.7173 7.25565 6.44632C7.22894 7.04023 7.41905 7.21305 8.01924 7.21305C8.6697 7.21305 9.15833 7.02294 9.65639 6.60501C11.999 4.63634 14.3809 2.71637 16.7298 0.757127C17.5452 0.0783831 18.4172 -0.136867 19.4573 0.0799542C24.8292 1.20334 30.2073 2.30001 35.5838 3.40926C37.1487 3.73292 38.1024 5.14854 37.8101 6.68986C37.5289 8.17304 36.0897 9.12202 34.5735 8.92248C32.6363 8.66796 30.6896 8.48727 28.7477 8.27831C27.8741 8.18404 26.9958 8.11962 26.1254 7.99864C25.8017 7.95307 25.6415 8.00964 25.4686 8.3003C25.2314 8.69781 24.9454 9.0906 24.6045 9.40012C22.0356 11.7349 19.4353 14.0366 16.8712 16.3777C16.1186 17.0643 15.3142 17.4131 14.2756 17.3707C12.1813 17.2842 10.0838 17.2905 7.98781 17.2308C7.4709 17.2167 7.24151 17.3424 7.25722 17.9096C7.28079 18.802 7.16295 18.8884 6.28467 18.89C4.54067 18.8915 2.79511 18.8743 1.05111 18.901C0.564049 18.9088 0.218392 18.7753 0.00157117 18.3369V6.08338H0ZM7.26822 12.1889C7.26822 13.2683 7.27922 14.3493 7.26351 15.4287C7.25722 15.8529 7.41277 16.0194 7.84641 16.0242C10.0209 16.0493 12.1938 16.0901 14.3683 16.142C14.9512 16.1561 15.4273 15.977 15.8594 15.5842C17.5154 14.0822 19.1855 12.5974 20.8494 11.1033C21.8848 10.1731 22.9312 9.25243 23.9446 8.3003C24.6296 7.65769 24.6579 6.74642 24.0703 6.08653C23.5094 5.45649 22.595 5.38421 21.9021 5.93255C21.58 6.18708 21.2799 6.47146 20.9735 6.74642C19.2955 8.25317 17.6175 9.75992 15.9395 11.2667C15.6127 11.5605 15.2607 11.7003 14.9214 11.3107C14.5977 10.9414 14.7831 10.6209 15.0895 10.346C17.0582 8.57683 19.008 6.78413 21.0065 5.04956C22.6201 3.65122 24.8527 4.25769 25.588 6.25307C25.7074 6.5783 25.8614 6.70242 26.2086 6.73385C27.3949 6.8454 28.5748 7.01037 29.7595 7.13764C31.4689 7.32146 33.1768 7.51943 34.8909 7.65455C35.8572 7.73154 36.5108 7.15178 36.6051 6.27192C36.6883 5.49105 36.14 4.81074 35.2491 4.62691C29.8962 3.52081 24.5401 2.43042 19.1918 1.30389C18.5194 1.16249 18.0166 1.32432 17.5201 1.73754C15.3456 3.53809 13.1412 5.30251 10.9919 7.13292C10.0618 7.92479 9.16305 8.65381 7.83855 8.47627C7.3672 8.41343 7.25251 8.69781 7.26194 9.12674C7.28236 10.148 7.26822 11.1677 7.26979 12.1889H7.26822ZM6.04114 12.2109C6.04114 10.6005 6.02857 8.99004 6.04899 7.3796C6.05371 6.95067 5.9123 6.77627 5.4818 6.78098C4.28614 6.79355 3.09049 6.79355 1.89483 6.78098C1.49732 6.77784 1.35278 6.92082 1.35435 7.33403C1.36849 10.5942 1.37006 13.8544 1.35435 17.1146C1.35278 17.5686 1.51932 17.6833 1.93882 17.6755C3.0952 17.655 4.25158 17.6503 5.40796 17.677C5.88716 17.688 6.05999 17.5356 6.05214 17.0407C6.027 15.4303 6.04271 13.8198 6.04271 12.2094L6.04114 12.2109Z" fill="#0056FD"/>
<path d="M60.1666 25.676C60.1666 27.541 60.1682 29.4059 60.1666 31.2725C60.1666 32.1052 59.9545 32.3142 59.1297 32.3158C57.3857 32.3158 55.6417 32.3173 53.8977 32.3158C53.1294 32.3158 52.9236 32.1508 52.9644 31.3935C52.9974 30.7713 52.7602 30.6425 52.1851 30.6472C51.5629 30.6519 51.0837 30.8169 50.5982 31.2238C48.3169 33.1422 45.9774 34.9899 43.7134 36.9271C42.7251 37.7724 41.7007 38.0002 40.4579 37.7379C35.1866 36.6223 29.9075 35.5429 24.6315 34.4447C23.0714 34.1195 22.1177 32.7007 22.4099 31.1594C22.6912 29.6793 24.1351 28.7304 25.6481 28.9299C27.5838 29.186 29.5304 29.3651 31.474 29.5756C32.3475 29.6699 33.2274 29.728 34.0947 29.86C34.4623 29.9166 34.6053 29.7987 34.7766 29.5002C34.9887 29.1326 35.2589 28.7791 35.5716 28.4947C38.1703 26.1348 40.7973 23.8047 43.3897 21.4386C44.1297 20.763 44.9279 20.444 45.9397 20.4849C48.0529 20.5681 50.1709 20.5634 52.2857 20.6247C52.8089 20.6404 52.9691 20.4582 52.9613 19.9491C52.9487 19.0504 53.0571 18.964 53.9307 18.964C55.6951 18.9624 57.4579 18.9608 59.2224 18.964C59.9592 18.964 60.1666 19.1651 60.1698 19.902C60.1761 21.8266 60.1713 23.7497 60.1713 25.6744L60.1666 25.676ZM52.9471 25.6477C52.9471 24.5872 52.9345 23.5266 52.9534 22.4661C52.9613 22.023 52.8183 21.8345 52.3485 21.8298C50.1944 21.8078 48.0388 21.7669 45.8847 21.7119C45.2814 21.6962 44.7896 21.8753 44.3403 22.2838C42.6136 23.8534 40.8696 25.4058 39.1334 26.9644C38.1844 27.8159 37.2229 28.6534 36.2975 29.5285C35.35 30.4256 35.636 31.8287 36.8285 32.2168C37.4696 32.4257 38.0116 32.2168 38.4987 31.7768C40.4202 30.0423 42.348 28.3156 44.2758 26.5857C44.5948 26.2998 44.9405 26.1112 45.2955 26.5087C45.6443 26.9015 45.4369 27.2315 45.1149 27.5206C43.1446 29.2897 41.1964 31.084 39.1947 32.8154C37.578 34.2137 35.361 33.5963 34.621 31.5883C34.5126 31.2961 34.3869 31.1531 34.0523 31.1201C32.8472 31.007 31.6468 30.8404 30.4433 30.7116C28.715 30.5278 26.9867 30.3298 25.2537 30.1931C24.3456 30.1224 23.692 30.732 23.6103 31.5914C23.538 32.355 24.0753 33.0432 24.9222 33.2192C30.2767 34.3268 35.6344 35.4157 40.9858 36.5438C41.6756 36.6899 42.1988 36.5343 42.7157 36.1054C44.8886 34.3033 47.0945 32.5389 49.2423 30.7069C50.174 29.9119 51.0774 29.197 52.4004 29.3745C52.8261 29.4311 52.966 29.1844 52.9581 28.7665C52.9377 27.7264 52.9518 26.6847 52.9518 25.6446L52.9471 25.6477ZM58.8531 25.6304C58.8531 24.02 58.8406 22.4095 58.861 20.7991C58.8673 20.3545 58.7573 20.1659 58.2765 20.1769C57.1013 20.2052 55.9245 20.1989 54.7492 20.1801C54.3219 20.1738 54.1648 20.3167 54.1663 20.7567C54.1805 23.9964 54.1836 27.2377 54.1632 30.4775C54.1601 30.9724 54.3659 31.0808 54.7917 31.0761C55.9481 31.0635 57.1044 31.0604 58.2608 31.0761C58.7102 31.0824 58.8704 30.93 58.8626 30.4602C58.8343 28.8498 58.8516 27.2393 58.8516 25.6289L58.8531 25.6304Z" fill="#0056FD"/>
<path d="M38.1995 18.975C38.2891 23.291 34.5513 27.156 29.9556 27.0476C25.5045 26.9424 22.0197 23.368 22.004 18.8493C21.9882 14.4783 25.7308 10.7059 30.229 10.8065C34.6927 10.9055 38.2341 14.4783 38.1995 18.975ZM36.9725 18.9231C36.9725 15.124 33.893 12.0477 30.0892 12.0493C26.3042 12.0493 23.2389 15.1429 23.2405 18.9593C23.242 22.7096 26.3435 25.8064 30.0955 25.8064C33.8946 25.8064 36.9709 22.7253 36.9709 18.9231H36.9725Z" fill="#0056FD"/>
<path d="M30.7681 15.4949C30.7681 16.4109 30.7445 17.2656 30.7901 18.1172C30.7979 18.2617 31.0807 18.4345 31.2709 18.5194C32.754 19.184 33.4155 20.708 32.8043 22.1032C32.4901 22.8228 31.9512 23.324 31.2222 23.5895C30.8734 23.7168 30.7319 23.8928 30.7539 24.2698C30.7775 24.6988 30.611 25.0931 30.1286 25.1041C29.6054 25.1167 29.4342 24.7082 29.4593 24.2557C29.4813 23.8692 29.3132 23.7199 28.977 23.5848C27.8614 23.1339 27.1654 22.1299 27.2 21.1212C27.2125 20.7567 27.3461 20.5085 27.7279 20.4723C28.1238 20.4346 28.3406 20.6232 28.4192 21.0222C28.5857 21.8707 28.7334 22.0592 29.4404 22.3436C29.4404 21.4386 29.453 20.5697 29.4247 19.7025C29.4216 19.5878 29.2205 19.4369 29.0791 19.3772C27.907 18.8839 27.1858 18.0684 27.2047 16.7408C27.2235 15.4666 27.9478 14.7014 29.0602 14.2049C29.2346 14.128 29.3289 13.8577 29.442 13.6645C29.4766 13.6063 29.442 13.5089 29.453 13.4319C29.5143 13.0517 29.6808 12.7328 30.1098 12.7375C30.5371 12.7422 30.7649 13.069 30.7398 13.4429C30.7052 13.9536 30.9441 14.1311 31.3636 14.3228C32.3581 14.7784 32.9646 15.5514 33.0054 16.6937C33.0196 17.0833 32.8687 17.3489 32.4524 17.3756C32.0517 17.4007 31.8396 17.1949 31.7893 16.7958C31.7139 16.2035 31.4814 15.7227 30.7649 15.4902L30.7681 15.4949ZM29.42 15.5122C28.735 15.7965 28.3815 16.3229 28.4302 16.8901C28.482 17.4777 28.8623 17.9192 29.42 18.0166V15.5106V15.5122ZM30.8089 19.8077V22.3012C31.4075 22.1283 31.7799 21.6476 31.7862 21.0662C31.7925 20.5069 31.4123 20.001 30.8089 19.8093V19.8077Z" fill="#0056FD"/>
</g>
<defs>
<clipPath id="clip0_559_437">
<rect width="60.1679" height="37.84" fill="white"/>
</clipPath>
</defs>
</svg>
