<svg width="46" height="41" viewBox="0 0 46 41" fill="none" xmlns="http://www.w3.org/2000/svg">
<g clip-path="url(#clip0_559_451)">
<path d="M22.7101 32.7854C21.3191 32.7497 19.9104 32.835 18.5849 32.3462C15.3619 31.1575 12.6167 29.4077 11.5004 25.8982C10.7925 23.6735 10.9809 21.5033 11.9435 19.3837C12.8189 17.4555 13.9352 15.7096 15.5056 14.2543C16.5337 13.3006 17.4656 12.2437 18.456 11.2484C18.566 11.1383 18.7812 11.0997 18.9507 11.0907C19.1777 11.0798 19.4077 11.1522 19.6368 11.1532C21.6691 11.1591 23.7015 11.1562 25.7338 11.1552C25.8657 11.1552 26.0144 11.1869 26.1274 11.1393C26.6737 10.9083 26.983 11.2097 27.329 11.5765C28.5414 12.8624 29.8402 14.0709 31.0021 15.4003C32.7955 17.4505 34.1101 19.7902 34.3123 22.5562C34.5691 26.0509 33.1266 28.7871 30.1931 30.6946C28.822 31.5868 27.3924 32.4136 25.7219 32.605C24.7236 32.719 23.7144 32.7289 22.7091 32.7854H22.7101ZM23.0809 17.1501C22.7924 17.1293 22.5673 17.1125 22.3314 17.0946C22.3115 16.8874 22.3482 16.6743 22.263 16.5394C22.1539 16.3699 21.9388 16.1568 21.7801 16.1647C21.6235 16.1726 21.4688 16.4244 21.336 16.588C21.2954 16.6386 21.3172 16.7496 21.3271 16.8309C21.3747 17.2314 21.2488 17.508 20.9226 17.7985C19.5832 18.9872 19.8975 21.1217 21.5194 21.889C21.8922 22.0655 22.3403 22.123 22.7596 22.1557C23.6866 22.2281 24.3538 22.8715 24.333 23.735C24.3132 24.5648 23.6876 25.2181 22.8727 25.2597C22.0429 25.3024 21.3479 24.7155 21.2488 23.852C21.2071 23.4921 21.0991 23.2085 20.6956 23.2522C20.2901 23.2968 20.188 23.6348 20.2921 23.959C20.4447 24.4369 20.5855 24.9683 20.8988 25.3331C21.2329 25.7217 21.3846 26.0806 21.3291 26.5644C21.3142 26.6953 21.3271 26.8281 21.3271 26.961C21.3271 27.2852 21.452 27.5241 21.8059 27.5231C22.1579 27.5231 22.2858 27.2752 22.2996 26.96C22.3105 26.7211 22.3016 26.4811 22.3016 26.2581H23.0858C23.0937 26.4008 23.1027 26.5139 23.1076 26.6259C23.1245 27.0095 23.0115 27.5261 23.6073 27.5092C24.1912 27.4924 24.0831 26.9748 24.0752 26.5942C24.0673 26.1698 24.1327 25.8486 24.5015 25.5284C25.2808 24.8513 25.4969 23.9352 25.1816 22.9547C24.8673 21.9782 24.1704 21.3893 23.1423 21.2297C22.8984 21.192 22.6476 21.198 22.4027 21.1692C21.6622 21.081 21.0822 20.4376 21.0564 19.6831C21.0316 18.9535 21.5868 18.2655 22.3214 18.1167C23.0382 17.972 23.8323 18.4171 24.0673 19.1081C24.1248 19.2777 24.1426 19.4631 24.1674 19.6425C24.211 19.9528 24.3776 20.1313 24.6968 20.1025C25.026 20.0728 25.1687 19.8348 25.1152 19.5444C25.0408 19.1448 24.9972 18.6838 24.7662 18.3814C24.3379 17.8203 23.9582 17.2988 24.0405 16.5384C24.0534 16.4185 23.7391 16.1528 23.5815 16.1568C23.4239 16.1607 23.2296 16.3947 23.1314 16.5722C23.0531 16.7129 23.0967 16.9201 23.0828 17.1462L23.0809 17.1501Z" fill="#0056FD"/>
<path d="M12.2276 40.669C9.91967 40.669 7.62459 40.6621 5.32951 40.6769C4.96964 40.6789 4.94584 40.444 4.8705 40.2139C3.71255 36.634 2.5546 33.0531 1.39566 29.4732C0.984236 28.2012 0.578756 26.9273 0.156423 25.6583C-0.0666408 24.9881 -0.0507785 24.3358 0.18319 23.6706C1.81205 19.0289 3.43199 14.3842 5.05886 9.74248C5.38999 8.79669 6.22276 8.33073 7.11006 8.57759C7.99735 8.82445 8.47025 9.6473 8.27891 10.6327C7.61963 14.0193 6.95143 17.405 6.30207 20.7935C6.21384 21.2555 6.21285 21.7334 6.16922 22.236C6.15832 22.238 6.09586 22.2529 6.0334 22.2539C4.36588 22.2915 3.48255 23.6329 4.1557 25.1497C5.03904 27.1414 5.94913 29.1212 6.84833 31.106C6.8751 31.1665 6.90385 31.226 6.9326 31.2855C7.06445 31.569 7.28553 31.6959 7.57601 31.563C7.86748 31.4302 7.91011 31.1794 7.78123 30.8948C7.44812 30.1582 7.117 29.4197 6.78389 28.6831C6.19797 27.3903 5.61008 26.0985 5.02615 24.8047C4.72278 24.1335 4.8933 23.5476 5.4584 23.2849C5.99176 23.0371 6.541 23.2819 6.87014 23.9105C8.78452 27.5657 10.7118 31.2161 12.5994 34.8852C12.7957 35.2659 12.8611 35.7755 12.8165 36.2067C12.6866 37.4539 12.4666 38.6912 12.2881 39.9334C12.2554 40.1574 12.2514 40.3855 12.2296 40.668L12.2276 40.669Z" fill="#0056FD"/>
<path d="M40.4055 40.667H33.2487C33.101 39.6478 32.9503 38.6554 32.8135 37.662C32.4566 35.0626 32.2989 35.942 33.5263 33.6033C35.2126 30.3882 36.8752 27.1602 38.5784 23.9531C38.736 23.6556 39.081 23.3969 39.3993 23.2611C39.7522 23.1114 40.1121 23.2958 40.355 23.611C40.6375 23.9778 40.6217 24.3694 40.4353 24.7769C39.5609 26.6992 38.6865 28.6225 37.823 30.5498C37.6723 30.8869 37.3164 31.3132 37.8577 31.5709C38.399 31.8287 38.505 31.2953 38.6617 30.9553C39.5202 29.0796 40.3788 27.2028 41.2175 25.3182C41.97 23.6279 41.164 22.3529 39.312 22.2667C39.2823 22.2657 39.2535 22.2429 39.3537 22.2052C39.089 20.7548 38.8342 19.3014 38.5566 17.853C38.0946 15.438 37.6158 13.0249 37.1488 10.6109C36.9654 9.66509 37.4591 8.82538 38.3177 8.59934C39.206 8.36537 40.0387 8.80555 40.359 9.71962C42.0037 14.4069 43.6543 19.0923 45.2574 23.7944C45.4329 24.308 45.4676 24.9712 45.307 25.4818C43.7317 30.4873 42.0998 35.475 40.4839 40.4677C40.464 40.5292 40.4363 40.5876 40.4046 40.666L40.4055 40.667Z" fill="#0056FD"/>
<path d="M26.8201 7.84784H18.6382C18.6094 7.79827 18.5232 7.66344 18.4488 7.52267C17.6934 6.09407 16.9379 4.66448 16.1854 3.2339C15.7889 2.47945 15.9088 2.02142 16.6345 1.56935C18.6897 0.291441 20.962 -0.073392 23.3304 0.0118678C25.2022 0.0792826 26.9906 0.491702 28.6225 1.45435C29.5841 2.02142 29.6902 2.41203 29.1707 3.39153C28.3756 4.89151 27.5865 6.39446 26.8201 7.84784Z" fill="#0056FD"/>
<path d="M22.7685 8.74909C23.8412 8.74909 24.9139 8.73819 25.9865 8.75306C26.5675 8.76099 26.9075 9.20514 26.739 9.69786C26.623 10.0369 26.3702 10.1886 26.0183 10.1886C23.8233 10.1886 21.6284 10.1945 19.4334 10.1866C18.9625 10.1846 18.6601 9.8773 18.6651 9.46191C18.6691 9.05048 18.9734 8.75901 19.4523 8.75504C20.5577 8.74513 21.6641 8.75207 22.7695 8.75207V8.75009L22.7685 8.74909Z" fill="#0056FD"/>
</g>
<defs>
<clipPath id="clip0_559_451">
<rect width="45.4108" height="40.6769" fill="white"/>
</clipPath>
</defs>
</svg>
