<svg width="38" height="37" viewBox="0 0 38 37" fill="none" xmlns="http://www.w3.org/2000/svg">
<g clip-path="url(#clip0_559_424)">
<path d="M11.9731 6.05744C11.0089 7.02464 10.1177 7.91994 9.22541 8.81423C8.71396 9.32669 8.47697 9.32669 7.96349 8.81119C5.40014 6.24075 2.83578 3.67133 0.271425 1.10089C0.183313 1.01278 0.0992525 0.919604 0 0.814275C0.291681 0.537786 0.571208 0.272438 0.858838 0C3.41104 2.55322 5.98249 5.12669 8.62889 7.7741C8.96108 7.41051 9.25782 7.06819 9.57178 6.74512C10.145 6.15568 10.7294 5.57738 11.3107 4.99604C11.809 4.49573 12.0541 4.49371 12.5453 4.98693C15.2697 7.7184 17.9941 10.4509 20.7184 13.1823C20.8147 13.2786 20.9159 13.3707 21.0435 13.4923C21.5651 12.9666 22.0715 12.4572 22.5779 11.9478C23.0691 11.4545 23.5552 10.9573 24.0556 10.4732C24.2156 10.3182 24.2449 10.1997 24.1437 9.98601C22.2356 5.94704 24.5356 1.3632 28.9007 0.491198C32.6318 -0.254208 36.3426 2.46713 36.7335 6.25999C37.007 8.9074 36.0205 11.0049 33.8856 12.5706C33.835 12.6081 33.7813 12.6415 33.7317 12.681C33.7134 12.6952 33.7023 12.7195 33.6689 12.7641C34.8548 13.9419 36.0448 15.1228 37.2501 16.3199C36.9189 16.6278 36.6373 16.8901 36.3234 17.1818C35.9355 16.7878 35.5304 16.3736 35.1222 15.9624C34.311 15.1461 33.5028 14.3258 32.6773 13.5247C32.5791 13.4295 32.3604 13.3697 32.2317 13.4072C29.4476 14.2245 27.0787 13.552 25.1018 11.4434C25.0592 11.3978 25.041 11.331 24.9782 11.2095C24.5538 11.6541 24.2034 12.0328 23.8419 12.3995C23.1046 13.1469 22.3622 13.8893 21.6198 14.6316C21.1661 15.0854 20.8967 15.0823 20.4369 14.6215C17.7206 11.8992 15.0054 9.1768 12.2921 6.45141C12.1858 6.34507 12.1017 6.21543 11.9741 6.05643L11.9731 6.05744ZM24.6723 7.07528C24.6723 10.0731 27.1202 12.523 30.1262 12.5321C33.1159 12.5413 35.5881 10.0761 35.5901 7.08338C35.5921 4.0653 33.1564 1.59614 30.1727 1.59006C27.1233 1.58399 24.6733 4.02783 24.6723 7.07528Z" fill="#0056FD"/>
<path d="M1.62061 23.7406C1.62061 19.6874 1.62061 15.6353 1.62061 11.5822C1.62061 10.8833 1.7948 10.7081 2.4916 10.7081C4.75415 10.7081 7.01569 10.7081 9.27824 10.7081C9.92338 10.7081 10.1128 10.8975 10.1128 11.5437C10.1128 19.6996 10.1128 27.8555 10.1128 36.0114C10.1128 36.6576 9.92237 36.848 9.27824 36.848C7.00353 36.848 4.72883 36.848 2.45412 36.848C1.80898 36.848 1.62061 36.6586 1.62061 36.0114C1.62061 31.9208 1.62061 27.8302 1.62061 23.7396V23.7406ZM8.87312 35.6175V11.9559H2.85417V35.6175H8.87312Z" fill="#0056FD"/>
<path d="M14.3589 26.5146C14.3589 23.3608 14.3589 20.208 14.3589 17.0542C14.3589 16.3554 14.5331 16.1802 15.2299 16.1802C17.4914 16.1802 19.754 16.1802 22.0155 16.1802C22.6606 16.1802 22.85 16.3696 22.85 17.0157C22.85 23.3476 22.85 29.6805 22.85 36.0124C22.85 36.6586 22.6606 36.849 22.0165 36.849C19.7418 36.849 17.4671 36.849 15.1924 36.849C14.5473 36.849 14.3589 36.6596 14.3589 36.0134C14.3589 32.8475 14.3589 29.6815 14.3589 26.5146ZM21.6114 35.6164V17.4259H15.5914V35.6164H21.6114Z" fill="#0056FD"/>
<path d="M27.0986 27.6924C27.0986 24.9437 27.0986 22.196 27.0986 19.4474C27.0986 18.8002 27.286 18.6118 27.9321 18.6118C30.2069 18.6118 32.4816 18.6118 34.7563 18.6118C35.4014 18.6118 35.5908 18.8012 35.5908 19.4474C35.5908 24.969 35.5908 30.4907 35.5908 36.0124C35.5908 36.6585 35.4004 36.8489 34.7573 36.8489C32.4826 36.8489 30.2079 36.8489 27.9332 36.8489C27.288 36.8489 27.0996 36.6596 27.0996 36.0124C27.0996 33.2384 27.0996 30.4654 27.0996 27.6914L27.0986 27.6924ZM34.3522 35.6164V19.8575H28.3302V35.6164H34.3522Z" fill="#0056FD"/>
<path d="M29.5256 3.99038V2.83582H30.7298V4.00861H31.9218V5.22901H29.5458V6.45347C29.797 6.45347 30.0573 6.47271 30.3145 6.45043C31.4245 6.35016 32.0616 6.9477 31.9542 8.11139C31.938 8.2866 31.9522 8.46586 31.9522 8.6431C31.9522 9.53941 31.6463 9.92224 30.746 10.1309V11.2875H29.5347V10.1147H28.3426V8.89427H30.7186V7.66982C30.4674 7.66982 30.2072 7.64956 29.9499 7.67285C28.8622 7.77413 28.2029 7.19786 28.3102 6.01189C28.3264 5.83567 28.3122 5.65742 28.3122 5.48018C28.3122 4.58792 28.6252 4.19598 29.5256 3.99038Z" fill="#0056FD"/>
</g>
<defs>
<clipPath id="clip0_559_424">
<rect width="37.2501" height="36.85" fill="white"/>
</clipPath>
</defs>
</svg>
