<svg width="46" height="45" viewBox="0 0 46 45" fill="none" xmlns="http://www.w3.org/2000/svg">
<g clip-path="url(#clip0_559_407)">
<path d="M27.6639 41.1768H23.0264C23.0264 40.971 23.0264 40.7934 23.0264 40.6118C23.0264 35.7401 23.0264 30.8685 23.0264 25.9969C23.0264 24.891 22.6793 24.5519 21.5653 24.5519C17.6906 24.5519 13.8159 24.5519 9.93714 24.5519C8.86353 24.5519 8.49624 24.9111 8.49624 25.9767C8.49624 30.8322 8.49624 35.6877 8.49624 40.5432C8.49624 40.7409 8.49624 40.9387 8.49624 41.1607C8.36708 41.1768 8.26214 41.201 8.16124 41.201C6.6275 41.201 5.0978 41.2051 3.56406 41.201C2.95864 41.201 2.70436 40.9427 2.70436 40.3292C2.70436 33.161 2.70436 25.9928 2.69629 18.8206C2.69629 18.3726 2.91424 18.1304 3.26135 17.9084C8.57292 14.5019 13.8764 11.0914 19.184 7.68083C19.5069 7.47498 19.8378 7.28125 20.1446 7.05522C20.5603 6.75251 20.9397 6.77269 21.3675 7.05522C23.9628 8.7383 26.5661 10.4052 29.1694 12.0802C32.1077 13.9691 35.042 15.8581 37.9803 17.7389C38.2911 17.9367 38.4808 18.1708 38.4768 18.5502C38.4727 20.6934 38.4768 22.8406 38.4727 24.9838C38.4727 25.0443 38.4566 25.1008 38.4404 25.1856C37.5686 25.2219 36.7009 25.2421 35.8331 25.3027C34.1298 25.4197 32.4548 25.6901 30.8565 26.3157C29.9807 26.6588 29.1613 27.1028 28.5196 27.8131C27.9545 28.4387 27.6518 29.1653 27.6558 30.0209C27.6639 33.5606 27.6558 37.0963 27.6558 40.636C27.6558 40.8136 27.6558 40.9952 27.6558 41.1809L27.6639 41.1768ZM25.3472 15.5594C25.3472 13.0812 23.3251 11.0591 20.8428 11.055C18.3727 11.055 16.3344 13.0852 16.3264 15.5594C16.3183 18.0497 18.3646 20.088 20.863 20.0799C23.3412 20.0758 25.3431 18.0537 25.3431 15.5594H25.3472Z" fill="#0056FD"/>
<path d="M0.0404319 14.7563C0.0404319 14.6353 0.0606126 14.5061 0.0404319 14.3891C-0.141195 13.4002 0.335071 12.8594 1.15441 12.3347C7.41044 8.36308 13.6423 4.34711 19.862 0.319036C20.5077 -0.0966875 20.988 -0.108796 21.6419 0.310964C28.0311 4.44802 34.4405 8.55682 40.8499 12.6575C41.298 12.9441 41.5199 13.2751 41.4877 13.82C41.4473 14.4294 41.4715 15.0469 41.4796 15.6564C41.4836 16.0519 41.4796 16.4313 41.0639 16.6453C40.6724 16.8511 40.3616 16.6614 40.0427 16.4556C36.6806 14.2922 33.3185 12.1328 29.9564 9.96947C27.1593 8.17338 24.3542 6.38941 21.5773 4.5691C20.9961 4.1897 20.5521 4.17356 19.9588 4.56103C13.8118 8.53664 7.64857 12.488 1.48941 16.4435C1.38447 16.508 1.28357 16.5807 1.17459 16.6332C0.641818 16.8955 0.0807934 16.5807 0.0485042 15.9874C0.0242873 15.5757 0.044468 15.16 0.044468 14.7483L0.0404319 14.7563Z" fill="#0056FD"/>
<path d="M10.7285 41.1728V26.7799H20.7906V41.1728H10.7285Z" fill="#0056FD"/>
<path d="M38.5533 32.5677C35.9096 32.5193 33.9561 32.374 32.0793 31.7363C31.5505 31.5547 31.0218 31.3165 30.5536 31.0098C29.6011 30.3842 29.6132 29.577 30.5536 28.9271C31.4012 28.3419 32.3739 28.0594 33.3668 27.8656C36.6886 27.2077 39.9982 27.2158 43.2836 28.0795C43.885 28.2369 44.4783 28.4791 45.0192 28.7859C46.3027 29.5043 46.3229 30.5133 44.999 31.1672C44.0666 31.6314 43.0374 31.9664 42.0163 32.1601C40.6561 32.4184 39.2556 32.4911 38.5452 32.5677H38.5533Z" fill="#0056FD"/>
<path d="M45.9235 41.2172C46.2141 42.2989 45.645 42.8801 44.8095 43.2998C43.5462 43.9335 42.182 44.2039 40.7895 44.3654C38.1055 44.6721 35.4335 44.6277 32.806 43.9416C32.0593 43.7478 31.3409 43.4128 30.6467 43.0657C29.908 42.6944 29.7183 42.0284 29.8919 41.2091C32.4387 42.42 35.147 42.7186 37.9037 42.7227C40.6644 42.7227 43.3726 42.428 45.9235 41.2172Z" fill="#0056FD"/>
<path d="M29.8841 37.3021C35.2562 39.2637 40.5839 39.2516 45.9278 37.3183C46.1215 38.0972 45.948 38.5897 45.2093 39.0659C44.1599 39.748 42.9652 40.0346 41.7504 40.2283C38.582 40.7329 35.4338 40.7006 32.326 39.8166C31.7851 39.6633 31.2564 39.4292 30.768 39.1547C29.9204 38.6825 29.7469 38.2425 29.88 37.3021H29.8841Z" fill="#0056FD"/>
<path d="M29.8839 33.3104C35.256 35.2558 40.5797 35.2598 45.9236 33.3104C46.1254 34.1216 45.9276 34.6221 45.1325 35.1145C44.18 35.7038 43.1104 35.9904 42.0206 36.176C38.828 36.7209 35.6475 36.7128 32.5034 35.8612C31.906 35.6998 31.3167 35.4415 30.7719 35.1468C29.9202 34.6867 29.7467 34.2387 29.8839 33.3063V33.3104Z" fill="#0056FD"/>
<path d="M20.8586 13.2588C22.1381 13.2668 23.1713 14.3041 23.1632 15.5755C23.1552 16.855 22.126 17.8802 20.8465 17.8842C19.5469 17.8842 18.5055 16.8388 18.5217 15.5432C18.5378 14.2678 19.5751 13.2507 20.8586 13.2588Z" fill="#0056FD"/>
</g>
<defs>
<clipPath id="clip0_559_407">
<rect width="46" height="44.5429" fill="white"/>
</clipPath>
</defs>
</svg>
