<svg width="40" height="42" viewBox="0 0 40 42" fill="none" xmlns="http://www.w3.org/2000/svg">
<g clip-path="url(#clip0_558_251)">
<path d="M-8.48213e-05 12.4776C-8.48213e-05 11.507 -0.00885547 10.5773 0.0116094 9.64468C0.0116094 9.5482 0.16071 9.42249 0.268882 9.36694C2.91177 8.02211 5.55466 6.68897 8.20047 5.34998C11.1094 3.87944 14.0213 2.41181 16.9243 0.929575C17.2225 0.777551 17.4506 0.780474 17.74 0.929575C21.9938 3.09008 26.2505 5.23889 30.5101 7.39354C31.8052 8.04842 33.1003 8.70914 34.4013 9.35524C34.6118 9.46049 34.6878 9.57743 34.682 9.81424C34.6674 10.5948 34.6761 11.3725 34.6761 12.1531C34.6761 12.2554 34.6644 12.3607 34.6557 12.4805H-8.48213e-05V12.4776ZM20.0233 7.35846C20.0233 5.8616 18.8159 4.66002 17.319 4.66587C15.8514 4.67172 14.6469 5.88207 14.641 7.35554C14.6352 8.82023 15.8514 10.0452 17.3161 10.051C18.8071 10.0569 20.0262 8.84655 20.0233 7.35846Z" fill="#0056FD"/>
<path d="M29.4607 20.5056C35.3371 20.5232 40.0206 25.2623 40.003 31.1737C39.9855 36.9535 35.2172 41.6634 29.4023 41.64C23.5464 41.6195 18.857 36.8746 18.8746 30.9924C18.8921 25.2096 23.6575 20.491 29.4607 20.5056ZM29.4841 23.5111C25.283 23.4964 21.8858 26.8761 21.8741 31.086C21.8624 35.2111 25.2567 38.617 29.3993 38.6375C33.5712 38.6609 37.0064 35.2579 37.0123 31.0977C37.0181 26.9375 33.6326 23.5257 29.4841 23.5111Z" fill="#0056FD"/>
<path d="M20.0615 38.3481H0.0292969V34.7083C0.146239 34.7024 0.271951 34.6907 0.394741 34.6907C6.16875 34.6907 11.9457 34.6907 17.7197 34.6819C18.0325 34.6819 18.1641 34.7755 18.2664 35.0708C18.664 36.2402 19.2721 37.3014 20.0644 38.3481H20.0615Z" fill="#0056FD"/>
<path d="M7.85531 31.2263H3.82666V15.9625H7.85531V31.2263Z" fill="#0056FD"/>
<path d="M17.5296 31.2205H15.3311V15.9713H19.3539C19.3597 16.0999 19.3685 16.2139 19.3685 16.3279C19.3685 19.0556 19.3714 21.7803 19.3626 24.508C19.3626 24.6747 19.3159 24.8618 19.2311 25.005C18.1581 26.8352 17.5851 28.8056 17.5559 30.9311C17.5559 31.0217 17.5383 31.1123 17.5266 31.2176L17.5296 31.2205Z" fill="#0056FD"/>
<path d="M30.8465 15.9742V19.2749C29.4958 19.1228 28.1627 19.1872 26.8208 19.4912V15.9742H30.8465Z" fill="#0056FD"/>
<path d="M9.47795 33.3575H2.23047C2.30063 32.8664 2.68654 32.5594 3.26833 32.5507C4.06061 32.5419 4.85289 32.5507 5.64225 32.5507C6.56317 32.5507 7.48409 32.5448 8.40793 32.5536C8.9751 32.5594 9.30253 32.8079 9.47795 33.3605V33.3575Z" fill="#0056FD"/>
<path d="M25.1895 13.8283H32.4369C32.396 14.2025 32.1212 14.5036 31.7294 14.5884C31.592 14.6177 31.4488 14.6264 31.3084 14.6264C29.642 14.6264 27.9785 14.6264 26.3121 14.6264C25.7274 14.6264 25.4087 14.4072 25.1895 13.8283Z" fill="#0056FD"/>
<path d="M2.21875 13.8283H9.46623C9.34636 14.3048 9.01308 14.6147 8.53946 14.6177C6.7444 14.6294 4.94642 14.6294 3.15136 14.6177C2.65728 14.6147 2.33862 14.3224 2.21875 13.8312V13.8283Z" fill="#0056FD"/>
<path d="M20.9764 13.8312C20.8069 14.3428 20.497 14.6176 20.0175 14.6205C18.2371 14.6322 16.4537 14.6322 14.6733 14.6205C14.1704 14.6176 13.8342 14.3194 13.7114 13.8312H20.9764Z" fill="#0056FD"/>
<path d="M13.6763 33.3488C13.8371 32.8723 14.1411 32.5858 14.5855 32.5712C15.597 32.539 16.6086 32.5595 17.6523 32.5595C17.6961 32.8226 17.7342 33.074 17.7809 33.3488H13.6792H13.6763Z" fill="#0056FD"/>
<path d="M30.0862 26.3498C30.0306 26.5983 30.1329 26.7708 30.4662 26.9111C31.3667 27.2912 31.8491 28.0192 31.9631 28.9868C32.0186 29.4488 31.7964 29.785 31.4134 29.8347C30.9983 29.8902 30.7206 29.63 30.665 29.1418C30.5802 28.4109 30.0511 27.9373 29.3611 27.9782C28.7267 28.0162 28.218 28.5629 28.2209 29.2003C28.2209 29.8785 28.7384 30.3814 29.4751 30.4194C30.7527 30.4866 31.7204 31.3111 31.9338 32.5185C32.1443 33.7113 31.5275 34.8076 30.3522 35.2929C30.1563 35.3748 30.0745 35.4713 30.092 35.6818C30.1066 35.8572 30.1037 36.0384 30.0832 36.2109C30.0452 36.5354 29.7792 36.7693 29.4576 36.7752C29.1243 36.781 28.7764 36.5296 28.8203 36.2022C28.905 35.5824 28.6156 35.3251 28.1011 35.0532C27.3439 34.6527 26.9784 33.9335 26.9229 33.071C26.8936 32.6325 27.1363 32.3314 27.5251 32.3051C27.9169 32.2788 28.18 32.536 28.2209 32.9833C28.2794 33.609 28.6624 34.0534 29.2237 34.1528C29.7821 34.2492 30.3259 33.9627 30.5627 33.4453C30.9223 32.6559 30.3727 31.7759 29.4722 31.7291C28.4753 31.6765 27.7005 31.2643 27.2181 30.3755C26.5282 29.0979 27.0661 27.4929 28.3993 26.917C28.7325 26.7737 28.8553 26.6042 28.8027 26.2679C28.791 26.1861 28.7969 26.1013 28.8027 26.0194C28.8261 25.6306 29.0892 25.3675 29.4547 25.3675C29.8055 25.3675 30.0628 25.616 30.0949 25.9902C30.1037 26.0838 30.0949 26.1802 30.0949 26.344L30.0862 26.3498Z" fill="#0056FD"/>
</g>
<defs>
<clipPath id="clip0_558_251">
<rect width="40" height="40.8244" fill="white" transform="translate(0 0.815552)"/>
</clipPath>
</defs>
</svg>
