<?xml version="1.0" encoding="utf-8"?>
<!-- Generator: Adobe Illustrator 27.3.1, SVG Export Plug-In . SVG Version: 6.00 Build 0)  -->
<svg version="1.1" id="Layer_1" xmlns="http://www.w3.org/2000/svg" xmlns:xlink="http://www.w3.org/1999/xlink" x="0px" y="0px"
	 viewBox="0 0 16 16" style="enable-background:new 0 0 16 16;" xml:space="preserve">
<style type="text/css">
	.st0{fill:#0D3ABA;}
	.st1{fill:#FBC040;}
	.st2{fill:#0071CF;}
</style>
<g>
	<path class="st0" d="M549.22-105.75l-34.9-27.13c-2.3-1.79-4.99-3.08-7.87-3.49c-5.97-0.85-11.69,1.47-15.29,6.06l-53.63,68.39
		c-3.52,4.49-8.85,7.06-14.62,7.06c-3.32,0-6.56-0.88-9.39-2.55l-3.61-2.78c-3.09-3.05-4.96-7-5.39-11.39
		c-0.48-4.92,1.19-9.8,4.24-13.69l43.39-55.25c1.27-1.62,3.16-2.55,5.19-2.55c1.42,0,2.79,0.46,3.95,1.32l20.13,14.93
		c1.05,0.78,2.53,0.56,3.31-0.49l3.61-4.87c0.78-1.05,0.56-2.53-0.49-3.31l-20.12-14.93c-3.05-2.26-6.64-3.46-10.39-3.46
		c-5.35,0-10.33,2.44-13.67,6.69l-43.27,55.1c-4.79,6.09-7.36,13.76-6.62,21.48c0.64,6.62,3.33,12.58,7.79,17.31l-0.09,0.21
		l1.3,1.01c0.77,0.73,1.59,1.43,2.44,2.07c0.71,0.54,1.45,1.05,2.19,1.52l62.92,48.49c2.53,1.9,5.54,2.9,8.7,2.9h0.01
		c4.58,0,8.79-2.07,11.56-5.67l61.56-80.14C557.59-90.03,556.28-100.26,549.22-105.75z M505.46-105.22
		c-2.26,2.83-1.79,6.95,1.04,9.21l7.27,5.79c1.16,0.92,2.61,1.43,4.08,1.43c2.01,0,3.88-0.9,5.13-2.47l10.44-13.11l9.17,7.13
		c2.38,1.85,2.83,5.33,0.99,7.72L482.02-9.36c-0.71,0.93-1.81,1.46-3,1.46c-0.81,0-1.57-0.25-2.18-0.71l-47.07-36.28
		c6.41-1.52,12.15-5.15,16.25-10.38l53.63-68.39c1.05-1.34,2.64-2.11,4.36-2.11c1.24,0,2.41,0.4,3.38,1.16l8.35,6.49L505.46-105.22z
		"/>
	<path class="st1" d="M452.02-124.91c-1.35-1.04-3.28-0.79-4.32,0.56L414.7-81.56c-1.04,1.35-0.79,3.28,0.56,4.32
		c0.56,0.43,1.22,0.64,1.88,0.64c0.92,0,1.84-0.41,2.44-1.2l32.99-42.79C453.62-121.93,453.36-123.87,452.02-124.91z"/>
	<path class="st2" d="M435.22-77.82c0.92,0,1.84-0.41,2.44-1.2l32.99-42.79c1.04-1.35,0.79-3.28-0.56-4.32
		c-1.35-1.04-3.28-0.79-4.32,0.56l-32.99,42.79c-1.04,1.35-0.79,3.28,0.56,4.32C433.9-78.03,434.56-77.82,435.22-77.82z"/>
</g>
<g>
	<g>
		<path class="st0" d="M591.83-94.57c0.48-2.35,0.99-5.83,1.53-10.44c6.42-1.66,12-2.8,16.74-3.41c4.74-0.61,9.35-0.92,13.85-0.92
			c4.82,0,9.33,0.44,13.53,1.32c4.2,0.88,7.7,2.32,10.48,4.3c2.78,1.98,4.63,4.26,5.54,6.82c0.91,2.57,1.37,5.33,1.37,8.27
			c0,3.69-0.28,9.89-0.84,18.59c-0.56,8.7-0.98,16.74-1.28,24.13c-0.29,7.39-0.44,13.97-0.44,19.75c-2.89-0.11-5.25-0.16-7.07-0.16
			c-1.72,0-4.15,0.05-7.32,0.16l1.71-21.92l1.22-25.93c-1.87,1.44-3.28,2.46-4.22,3.05c-0.94,0.59-1.99,1.14-3.17,1.65
			c-1.18,0.51-2.48,0.99-3.9,1.44c-1.42,0.46-4.18,1.25-8.28,2.37c-4.1,1.12-7,1.98-8.72,2.57c-3.7,1.18-6.62,2.36-8.76,3.53
			c-2.14,1.18-3.94,2.46-5.38,3.85c-1.45,1.39-2.46,2.79-3.05,4.18c-0.7,1.71-1.04,3.51-1.04,5.38c0,2.89,0.85,5.41,2.57,7.55
			s3.87,3.63,6.47,4.46c2.6,0.83,5.71,1.24,9.35,1.24c2.25,0,4.6-0.15,7.06-0.47c2.46-0.31,5.75-1.12,9.88-2.42
			c-0.75,2.07-1.61,5.26-2.57,9.56c-3.91,0.75-7.09,1.22-9.55,1.4c-2.46,0.19-4.79,0.28-6.99,0.28c-7.34,0-13.06-0.86-17.18-2.57
			c-4.12-1.71-7.2-4.32-9.23-7.83s-3.05-7.32-3.05-11.44c0-2.41,0.36-4.63,1.09-6.66c0.72-2.03,1.7-3.88,2.93-5.54
			s2.98-3.32,5.26-4.98c2.27-1.66,4.66-3.02,7.15-4.09c2.49-1.07,5.4-2.13,8.71-3.17c3.32-1.04,8.65-2.45,15.98-4.22
			c2.36-0.53,4.36-1.08,6.02-1.65c1.66-0.56,3.13-1.11,4.42-1.65c1.29-0.53,2.41-1.16,3.37-1.89c0.96-0.72,1.85-1.61,2.65-2.65
			c0.8-1.04,1.39-2.1,1.77-3.17c0.38-1.07,0.56-2.14,0.56-3.21c0-2.62-0.86-4.87-2.57-6.75c-1.71-1.87-3.95-3.18-6.71-3.93
			c-2.76-0.75-6.01-1.13-9.76-1.13c-3.48,0-7.05,0.28-10.72,0.84c-3.67,0.56-6.83,1.23-9.48,2.01
			C599.1-97.29,595.79-96.12,591.83-94.57z"/>
		<path class="st0" d="M729.1-38.37c-0.11,0.86-0.39,2.45-0.84,4.78c-0.46,2.33-0.84,4.62-1.16,6.86
			c-3.91,0.91-7.67,1.53-11.28,1.85c-3.61,0.32-6.78,0.48-9.51,0.48c-5.78,0-11.12-0.78-16.02-2.33c-4.9-1.55-9.17-4.11-12.81-7.67
			c-3.64-3.56-6.32-7.98-8.03-13.25c-1.71-5.27-2.57-10.83-2.57-16.66c0-7.87,1.39-15.34,4.18-22.4
			c2.78-7.06,7.17-12.61,13.17-16.62c6-4.01,14.16-6.02,24.49-6.02c7.6,0,15.02,1.02,22.24,3.05c0.32,4.55,0.61,8.3,0.88,11.24
			c-5.09-1.61-9.23-2.69-12.44-3.25c-3.21-0.56-6.18-0.84-8.91-0.84c-4.71,0-8.92,0.86-12.65,2.57c-3.72,1.72-6.89,4.15-9.51,7.31
			c-2.62,3.16-4.51,6.9-5.66,11.24c-1.15,4.34-1.72,8.75-1.72,13.25c0,6.05,0.94,11.35,2.81,15.9c1.87,4.55,5.15,8.07,9.84,10.56
			c4.68,2.49,9.94,3.73,15.78,3.73C715.02-34.59,721.6-35.85,729.1-38.37z"/>
		<path class="st0" d="M801.97-38.37c-0.11,0.86-0.39,2.45-0.84,4.78c-0.46,2.33-0.84,4.62-1.16,6.86
			c-3.91,0.91-7.67,1.53-11.28,1.85c-3.61,0.32-6.78,0.48-9.51,0.48c-5.78,0-11.12-0.78-16.02-2.33c-4.9-1.55-9.17-4.11-12.81-7.67
			c-3.64-3.56-6.32-7.98-8.03-13.25c-1.71-5.27-2.57-10.83-2.57-16.66c0-7.87,1.39-15.34,4.18-22.4
			c2.78-7.06,7.17-12.61,13.17-16.62c6-4.01,14.16-6.02,24.49-6.02c7.6,0,15.02,1.02,22.24,3.05c0.32,4.55,0.61,8.3,0.88,11.24
			c-5.09-1.61-9.23-2.69-12.44-3.25c-3.21-0.56-6.18-0.84-8.91-0.84c-4.71,0-8.92,0.86-12.65,2.57c-3.72,1.72-6.89,4.15-9.52,7.31
			c-2.62,3.16-4.51,6.9-5.66,11.24s-1.72,8.75-1.72,13.25c0,6.05,0.94,11.35,2.81,15.9c1.87,4.55,5.15,8.07,9.84,10.56
			c4.68,2.49,9.94,3.73,15.78,3.73C787.89-34.59,794.48-35.85,801.97-38.37z"/>
		<path class="st0" d="M855.5-109.35c5.62,0,10.97,0.8,16.06,2.41c5.09,1.61,9.49,4.15,13.21,7.63s6.54,7.87,8.47,13.17
			c1.93,5.3,2.89,10.89,2.89,16.78c0,6.37-1.03,12.47-3.09,18.31c-2.06,5.83-4.95,10.79-8.67,14.85c-3.72,4.07-8.27,7.05-13.65,8.95
			c-5.38,1.9-11.15,2.85-17.31,2.85c-5.73,0-11.13-0.86-16.22-2.57c-5.09-1.71-9.49-4.39-13.21-8.03c-3.72-3.64-6.54-8.1-8.47-13.37
			c-1.93-5.27-2.89-10.8-2.89-16.58c0-8.73,1.77-16.58,5.3-23.57s8.73-12.21,15.58-15.66S847.68-109.35,855.5-109.35z M855.14-99.15
			c-5.45,0-10.46,1.37-15.03,4.09c-4.57,2.73-7.95,6.84-10.14,12.32c-2.19,5.49-3.29,11.47-3.29,17.95c0,5.67,0.91,10.77,2.73,15.3
			c1.82,4.52,4.81,8.18,8.98,10.96c4.17,2.79,9.19,4.18,15.07,4.18c4.01,0,7.8-0.68,11.38-2.05c3.58-1.36,6.71-3.62,9.38-6.78
			c2.67-3.16,4.65-7.03,5.93-11.6c1.28-4.58,1.92-9.38,1.92-14.41c0-4.71-0.64-9.13-1.92-13.25c-1.28-4.12-3.25-7.43-5.89-9.92
			c-2.64-2.49-5.64-4.24-8.98-5.26C861.94-98.64,858.56-99.15,855.14-99.15z"/>
		<path class="st0" d="M983.46-26.16c-2.62-0.11-4.87-0.16-6.75-0.16c-2.14,0-4.37,0.05-6.67,0.16l0.4-15.5
			c-1.28,2.41-2.4,4.27-3.33,5.58c-0.94,1.31-2.1,2.6-3.49,3.85c-1.39,1.26-2.82,2.32-4.3,3.17c-1.47,0.86-3.2,1.62-5.18,2.29
			c-1.98,0.67-4.29,1.23-6.94,1.68c-2.65,0.45-5.47,0.68-8.47,0.68c-6.53,0-12.11-0.99-16.74-2.97c-4.63-1.98-8.14-4.79-10.52-8.43
			c-2.38-3.64-3.57-8.62-3.57-14.94c0-0.96,0.05-2.6,0.16-4.9c0.1-2.3,0.26-5.3,0.48-8.99l1.35-26.74l0.24-8.59
			c0.05-1.98,0.08-4.5,0.08-7.55l7.4,0.08c1.5,0,3.81-0.02,6.92-0.08c-0.76,9.37-1.48,19.62-2.15,30.75
			c-0.68,11.14-1.02,18.25-1.02,21.36c0,4.71,0.76,8.47,2.29,11.28c1.53,2.81,4.07,4.98,7.63,6.5c3.56,1.52,7.59,2.29,12.09,2.29
			c3.96,0,7.77-0.7,11.41-2.09c3.11-1.23,5.73-2.89,7.87-4.98c2.3-2.3,4.23-5.27,5.78-8.91c1.12-2.68,1.98-6.13,2.57-10.36
			c0.38-3.05,0.75-8.54,1.13-16.46c0.42-9.64,0.72-19.43,0.88-29.39l7.48,0.08c1.61,0,3.86-0.02,6.75-0.08
			c-0.75,9.63-1.63,24.28-2.64,43.92C984-52.76,983.63-40.29,983.46-26.16z"/>
		<path class="st0" d="M999.8-26.16c2.56-33.56,3.89-60.68,4-81.34l7.23,0.08c1.77,0,4.1-0.02,6.99-0.08l-1.06,16.06
			c1.34-2.25,2.41-3.98,3.21-5.18c0.8-1.2,1.87-2.48,3.21-3.81c1.34-1.34,2.92-2.58,4.74-3.73s3.96-2.11,6.42-2.89
			c2.46-0.78,4.97-1.35,7.51-1.72c2.54-0.38,5.07-0.56,7.59-0.56c4.6,0,9.05,0.56,13.33,1.69s7.8,2.96,10.56,5.5
			c2.76,2.54,4.6,5.39,5.54,8.55c0.94,3.16,1.41,6.56,1.41,10.2c0,0.7-0.03,2.04-0.08,4.01c-0.05,1.98-0.16,4.58-0.32,7.79
			l-1.59,33.64c-0.11,3.21-0.19,7.15-0.24,11.8c-2.41-0.11-4.69-0.16-6.84-0.16c-2.63,0-5.09,0.05-7.4,0.16
			c0.54-6.48,0.94-12.71,1.22-18.71l1.05-18.71c0.32-6.42,0.49-11.27,0.49-14.53c0-4.71-0.8-8.47-2.41-11.28s-4.18-4.98-7.72-6.5
			c-3.54-1.53-7.51-2.29-11.9-2.29c-6.22,0-11.55,1.47-16,4.42c-4.07,2.73-7.23,6.61-9.49,11.64c-1.56,3.59-2.65,8.89-3.3,15.9
			c-0.82,8.41-1.39,21.76-1.71,40.07c-2.99-0.11-5.31-0.16-6.96-0.16C1005.67-26.32,1003.16-26.27,999.8-26.16z"/>
		<path class="st0" d="M1135.71-36.76c-0.59,2.62-1.23,6.1-1.93,10.44c-3.64,0.85-6.53,1.39-8.67,1.61
			c-2.14,0.21-4.18,0.32-6.1,0.32c-4.77,0-8.61-0.6-11.52-1.81c-2.92-1.2-5.15-3.13-6.7-5.78c-1.55-2.65-2.33-6.25-2.33-10.8
			c0-0.59,0.03-1.63,0.08-3.13c0.05-1.5,0.33-6.72,0.82-15.66l1.96-35.97h-10.73c0.21-2.25,0.4-5.46,0.56-9.63h10.95
			c0.27-3,0.54-8.11,0.81-15.34c5.02-0.96,9.26-1.87,12.73-2.73c-0.37,7.92-0.58,13.95-0.64,18.07h22.31
			c-0.27,3.37-0.43,6.58-0.48,9.63h-22.23l-2.15,45.21l-0.08,3.45c0,3.91,0.44,6.84,1.32,8.79c0.88,1.95,2.2,3.36,3.97,4.21
			c1.76,0.86,3.61,1.29,5.53,1.29c1.34,0,2.78-0.11,4.33-0.32C1129.08-35.13,1131.81-35.74,1135.71-36.76z"/>
		<path class="st0" d="M1147.89-94.57c0.48-2.35,0.99-5.83,1.53-10.44c6.42-1.66,12-2.8,16.74-3.41c4.74-0.61,9.35-0.92,13.85-0.92
			c4.82,0,9.33,0.44,13.53,1.32c4.2,0.88,7.7,2.32,10.48,4.3c2.78,1.98,4.63,4.26,5.54,6.82c0.91,2.57,1.37,5.33,1.37,8.27
			c0,3.69-0.28,9.89-0.84,18.59c-0.56,8.7-0.98,16.74-1.28,24.13c-0.29,7.39-0.44,13.97-0.44,19.75c-2.89-0.11-5.25-0.16-7.07-0.16
			c-1.72,0-4.15,0.05-7.32,0.16l1.71-21.92l1.22-25.93c-1.87,1.44-3.28,2.46-4.22,3.05c-0.94,0.59-1.99,1.14-3.17,1.65
			c-1.18,0.51-2.48,0.99-3.9,1.44c-1.42,0.46-4.18,1.25-8.28,2.37c-4.1,1.12-7,1.98-8.72,2.57c-3.7,1.18-6.62,2.36-8.76,3.53
			c-2.14,1.18-3.94,2.46-5.38,3.85c-1.45,1.39-2.46,2.79-3.05,4.18c-0.7,1.71-1.04,3.51-1.04,5.38c0,2.89,0.85,5.41,2.57,7.55
			c1.71,2.14,3.87,3.63,6.47,4.46c2.6,0.83,5.71,1.24,9.35,1.24c2.25,0,4.6-0.15,7.06-0.47c2.46-0.31,5.75-1.12,9.88-2.42
			c-0.75,2.07-1.6,5.26-2.57,9.56c-3.91,0.75-7.09,1.22-9.55,1.4c-2.46,0.19-4.79,0.28-6.99,0.28c-7.34,0-13.06-0.86-17.18-2.57
			c-4.12-1.71-7.2-4.32-9.23-7.83s-3.05-7.32-3.05-11.44c0-2.41,0.36-4.63,1.09-6.66c0.72-2.03,1.7-3.88,2.93-5.54
			s2.98-3.32,5.26-4.98c2.27-1.66,4.66-3.02,7.15-4.09c2.49-1.07,5.4-2.13,8.71-3.17c3.32-1.04,8.65-2.45,15.98-4.22
			c2.36-0.53,4.36-1.08,6.02-1.65c1.66-0.56,3.13-1.11,4.42-1.65c1.29-0.53,2.41-1.16,3.37-1.89c0.96-0.72,1.85-1.61,2.65-2.65
			c0.8-1.04,1.39-2.1,1.77-3.17c0.38-1.07,0.56-2.14,0.56-3.21c0-2.62-0.86-4.87-2.57-6.75c-1.71-1.87-3.95-3.18-6.71-3.93
			c-2.76-0.75-6.01-1.13-9.76-1.13c-3.48,0-7.05,0.28-10.72,0.84c-3.67,0.56-6.83,1.23-9.48,2.01
			C1155.15-97.29,1151.85-96.12,1147.89-94.57z"/>
		<path class="st0" d="M1224.85-26.16c2.56-33.56,3.89-60.68,4-81.34l7.23,0.08c1.77,0,4.1-0.02,6.99-0.08l-1.06,16.06
			c1.34-2.25,2.41-3.98,3.21-5.18c0.8-1.2,1.87-2.48,3.21-3.81c1.34-1.34,2.92-2.58,4.74-3.73c1.82-1.15,3.96-2.11,6.42-2.89
			c2.46-0.78,4.97-1.35,7.51-1.72c2.54-0.38,5.07-0.56,7.59-0.56c4.6,0,9.05,0.56,13.33,1.69c4.28,1.12,7.8,2.96,10.56,5.5
			c2.76,2.54,4.6,5.39,5.54,8.55c0.94,3.16,1.41,6.56,1.41,10.2c0,0.7-0.03,2.04-0.08,4.01c-0.05,1.98-0.16,4.58-0.32,7.79
			l-1.59,33.64c-0.11,3.21-0.19,7.15-0.24,11.8c-2.41-0.11-4.69-0.16-6.84-0.16c-2.63,0-5.09,0.05-7.4,0.16
			c0.54-6.48,0.94-12.71,1.22-18.71l1.05-18.71c0.32-6.42,0.49-11.27,0.49-14.53c0-4.71-0.8-8.47-2.41-11.28
			c-1.61-2.81-4.18-4.98-7.72-6.5c-3.54-1.53-7.51-2.29-11.9-2.29c-6.22,0-11.55,1.47-16,4.42c-4.07,2.73-7.23,6.61-9.49,11.64
			c-1.56,3.59-2.65,8.89-3.3,15.9c-0.82,8.41-1.39,21.76-1.71,40.07c-2.99-0.11-5.31-0.16-6.96-0.16
			C1230.72-26.32,1228.21-26.27,1224.85-26.16z"/>
		<path class="st0" d="M1360.76-36.76c-0.59,2.62-1.23,6.1-1.93,10.44c-3.64,0.85-6.53,1.39-8.67,1.61
			c-2.14,0.21-4.18,0.32-6.1,0.32c-4.77,0-8.61-0.6-11.52-1.81c-2.92-1.2-5.15-3.13-6.71-5.78c-1.55-2.65-2.33-6.25-2.33-10.8
			c0-0.59,0.03-1.63,0.08-3.13c0.05-1.5,0.33-6.72,0.82-15.66l1.96-35.97h-10.73c0.21-2.25,0.4-5.46,0.56-9.63h10.95
			c0.27-3,0.54-8.11,0.81-15.34c5.02-0.96,9.26-1.87,12.73-2.73c-0.37,7.92-0.58,13.95-0.64,18.07h22.31
			c-0.27,3.37-0.43,6.58-0.48,9.63h-22.23l-2.15,45.21l-0.08,3.45c0,3.91,0.44,6.84,1.32,8.79c0.88,1.95,2.2,3.36,3.97,4.21
			c1.76,0.86,3.61,1.29,5.53,1.29c1.34,0,2.78-0.11,4.33-0.32C1354.13-35.13,1356.86-35.74,1360.76-36.76z"/>
	</g>
</g>
<g>
	<path class="st0" d="M15.04,5.14l-3.29-2.56c-0.22-0.17-0.47-0.29-0.74-0.33c-0.56-0.08-1.1,0.14-1.44,0.57L4.5,9.28
		C4.17,9.7,3.67,9.95,3.12,9.95c-0.31,0-0.62-0.08-0.89-0.24L1.9,9.44C1.61,9.16,1.43,8.78,1.39,8.37C1.34,7.91,1.5,7.44,1.79,7.08
		l4.09-5.21C6,1.71,6.18,1.62,6.37,1.62c0.13,0,0.26,0.04,0.37,0.12l1.9,1.41c0.1,0.07,0.24,0.05,0.31-0.05L9.3,2.65
		c0.07-0.1,0.05-0.24-0.05-0.31l-1.9-1.41C7.06,0.72,6.73,0.6,6.37,0.6c-0.5,0-0.97,0.23-1.29,0.63L1,6.43
		c-0.45,0.58-0.7,1.3-0.63,2.03c0.06,0.62,0.31,1.19,0.74,1.63L1.1,10.11l0.12,0.09c0.07,0.07,0.15,0.13,0.23,0.2
		c0.07,0.05,0.14,0.1,0.21,0.14l5.94,4.58c0.24,0.18,0.52,0.27,0.82,0.27h0c0.43,0,0.83-0.19,1.09-0.54l5.81-7.56
		C15.84,6.63,15.71,5.66,15.04,5.14z M10.92,5.2c-0.21,0.27-0.17,0.66,0.1,0.87l0.69,0.55c0.11,0.09,0.25,0.13,0.39,0.13
		c0.19,0,0.37-0.09,0.48-0.23l0.99-1.24l0.87,0.67c0.23,0.17,0.27,0.5,0.09,0.73L8.7,14.24c-0.07,0.09-0.17,0.14-0.28,0.14
		c-0.08,0-0.15-0.02-0.21-0.07l-4.44-3.42c0.6-0.14,1.15-0.49,1.53-0.98l5.06-6.45c0.1-0.13,0.25-0.2,0.41-0.2
		c0.12,0,0.23,0.04,0.32,0.11l0.79,0.61L10.92,5.2z"/>
	<path class="st1" d="M5.87,3.34c-0.13-0.1-0.31-0.07-0.41,0.05L2.35,7.43C2.25,7.56,2.28,7.74,2.4,7.84
		C2.46,7.88,2.52,7.9,2.58,7.9c0.09,0,0.17-0.04,0.23-0.11l3.11-4.04C6.02,3.62,6,3.44,5.87,3.34z"/>
	<path class="st2" d="M4.29,7.78c0.09,0,0.17-0.04,0.23-0.11l3.11-4.04C7.73,3.5,7.7,3.32,7.58,3.22c-0.13-0.1-0.31-0.07-0.41,0.05
		L4.06,7.31c-0.1,0.13-0.07,0.31,0.05,0.41C4.16,7.76,4.22,7.78,4.29,7.78z"/>
</g>
</svg>
