<svg width="58" height="56" viewBox="0 0 58 56" fill="none" xmlns="http://www.w3.org/2000/svg">
<rect x="0.87207" y="0.156586" width="56.371" height="54.9256" rx="10.1179" fill="#1CAF00"/>
<mask id="mask0_275_2663" style="mask-type:alpha" maskUnits="userSpaceOnUse" x="10" y="8" width="36" height="36">
<rect x="10.9897" y="8.82904" width="34.6898" height="34.6898" fill="#D9D9D9"/>
</mask>
<g mask="url(#mask0_275_2663)">
<path d="M35.5617 31.9556C34.3572 31.9556 33.3333 31.534 32.4902 30.6909C31.647 29.8477 31.2254 28.8239 31.2254 27.6194C31.2254 26.4149 31.647 25.391 32.4902 24.5479C33.3333 23.7047 34.3572 23.2831 35.5617 23.2831C36.7662 23.2831 37.79 23.7047 38.6332 24.5479C39.4763 25.391 39.8979 26.4149 39.8979 27.6194C39.8979 28.8239 39.4763 29.8477 38.6332 30.6909C37.79 31.534 36.7662 31.9556 35.5617 31.9556ZM26.8892 42.0735V37.8818C26.8892 37.3759 27.0097 36.9001 27.2506 36.4544C27.4915 36.0088 27.8287 35.6534 28.2624 35.3884C29.0332 34.9307 29.8463 34.5513 30.7015 34.2502C31.5567 33.9491 32.43 33.7262 33.3213 33.5817L35.5617 36.2918L37.8021 33.5817C38.6934 33.7262 39.5606 33.9491 40.4038 34.2502C41.247 34.5513 42.054 34.9307 42.8249 35.3884C43.2585 35.6534 43.6018 36.0088 43.8547 36.4544C44.1077 36.9001 44.2341 37.3759 44.2341 37.8818V42.0735H26.8892ZM23.9984 37.8818V39.1826H18.2167C17.4218 39.1826 16.7412 38.8996 16.1751 38.3335C15.609 37.7673 15.3259 37.0868 15.3259 36.2918V16.0561C15.3259 15.2611 15.609 14.5806 16.1751 14.0144C16.7412 13.4483 17.4218 13.1653 18.2167 13.1653H38.4525C39.2475 13.1653 39.928 13.4483 40.4941 14.0144C41.0603 14.5806 41.3433 15.2611 41.3433 16.0561V23.2831C40.5965 22.3436 39.7534 21.6269 38.8139 21.1331C37.8743 20.6392 36.7903 20.3923 35.5617 20.3923V18.9469H21.1076V21.8377H31.2254C30.7436 22.2232 30.31 22.6568 29.9246 23.1386C29.5391 23.6204 29.2139 24.1504 28.9489 24.7285H21.1076V27.6194H28.3346C28.3346 28.1253 28.3888 28.6191 28.4972 29.1009C28.6056 29.5827 28.7562 30.0525 28.9489 30.5102H21.1076V33.401H26.0942C25.4438 33.9551 24.9319 34.6236 24.5585 35.4065C24.1851 36.1894 23.9984 37.0145 23.9984 37.8818Z" fill="#FAFAFA"/>
</g>
</svg>
