<svg width="55" height="54" viewBox="0 0 55 54" fill="none" xmlns="http://www.w3.org/2000/svg">
<rect x="0.62085" y="0.143066" width="53.5242" height="53.5242" rx="26.7621" fill="#0171FF"/>
<g clip-path="url(#clip0_275_2537)">
<path d="M32.1022 43.451C31.7895 43.2906 31.5026 43.1661 31.2397 43.0038C30.9598 42.8315 30.7307 42.8364 30.4249 42.9918C29.908 43.2548 29.3443 43.4251 28.8114 43.6601C28.676 43.7199 28.5395 43.8563 28.4788 43.9908C28.3533 44.2727 28.2616 44.5725 28.1899 44.8733C28.1371 45.0904 28.0256 45.1372 27.8204 45.1332C27.0983 45.1223 26.3762 45.1233 25.6541 45.1332C25.4639 45.1352 25.3443 45.0944 25.3154 44.8882C25.1989 44.0306 24.7567 43.4858 23.8593 43.3633C23.7049 43.3424 23.5356 43.2747 23.4161 43.1761C22.8703 42.7219 22.3543 42.8603 21.8454 43.2269C21.5237 43.4579 21.2796 43.4311 21.0018 43.1143C20.5765 42.6293 20.0994 42.188 19.6352 41.7388C19.4968 41.6054 19.443 41.4859 19.5685 41.3255C20.1123 40.6333 20.1273 39.949 19.6173 39.215C19.433 38.95 19.3663 38.5955 19.2807 38.2737C19.2219 38.0536 19.1113 37.9431 18.8932 37.8883C18.6054 37.8146 18.3295 37.6891 18.0406 37.6214C17.8205 37.5706 17.7767 37.457 17.7797 37.2548C17.7896 36.5347 17.7886 35.8136 17.7797 35.0935C17.7777 34.9053 17.8155 34.7847 18.0257 34.7578C18.8912 34.6473 19.4261 34.1941 19.5506 33.3007C19.5725 33.1463 19.6432 32.981 19.7398 32.8595C20.1611 32.3326 20.0506 31.8545 19.7239 31.3157C19.3733 30.737 19.3593 30.9222 19.8633 30.4073C20.2986 29.9631 20.7478 29.5338 21.181 29.0866C21.3145 28.9492 21.435 28.8924 21.5954 29.0179C22.2886 29.5597 22.9738 29.5766 23.7109 29.0697C23.9768 28.8864 24.3304 28.8177 24.6541 28.734C24.8772 28.6762 24.9838 28.5627 25.0386 28.3456C25.1123 28.0577 25.2358 27.7828 25.3055 27.494C25.3573 27.2779 25.4688 27.2301 25.674 27.233C26.3961 27.245 27.1182 27.243 27.8403 27.233C28.0296 27.231 28.1551 27.2689 28.179 27.4771C28.2835 28.3685 28.7855 28.8715 29.672 29.0129C29.8144 29.0358 29.9678 29.0996 30.0803 29.1892C30.6062 29.6085 31.0913 29.5139 31.6261 29.1733C32.1062 28.8665 32.1301 28.9043 32.5375 29.3117C32.9777 29.7509 33.412 30.1962 33.8592 30.6274C33.9966 30.7609 34.0524 30.8804 33.9269 31.0408C33.3871 31.733 33.3671 32.4162 33.8761 33.1523C34.0663 33.4272 34.0972 33.8077 34.2377 34.1234C34.2984 34.2589 34.4349 34.3953 34.5703 34.4551C34.8532 34.5796 35.154 34.6692 35.4548 34.7429C35.6699 34.7957 35.7187 34.9072 35.7157 35.1124C35.7038 35.8325 35.7058 36.5536 35.7157 37.2738C35.7177 37.463 35.6779 37.5875 35.4707 37.6124C34.5803 37.72 34.0713 38.215 33.9309 39.1014C33.908 39.2439 33.8452 39.3972 33.7546 39.5088C33.3323 40.0347 33.4448 40.5138 33.7705 41.0526C34.1201 41.6313 34.1351 41.446 33.6311 41.9609C33.2048 42.3962 32.7705 42.8235 32.3373 43.2528C32.2626 43.3265 32.1759 43.3892 32.1012 43.451H32.1022ZM26.7636 30.2191C23.4579 30.2141 20.7747 32.8824 20.7727 36.1762C20.7707 39.457 23.435 42.1343 26.7138 42.1472C30.0206 42.1592 32.7148 39.4978 32.7237 36.207C32.7327 32.9073 30.0624 30.224 26.7636 30.2181V30.2191Z" fill="white"/>
<path d="M24.529 26.0303C24.3707 26.5124 24.2342 26.9745 24.0629 27.4237C24.0141 27.5522 23.8806 27.6618 23.7621 27.7484C23.6655 27.8191 23.5171 27.8191 23.4205 27.8898C22.6864 28.4247 22.1157 27.9566 21.4673 27.587C23.6545 26.9028 25.2372 25.5821 26.1475 23.5234C26.8696 21.8909 26.9473 20.2047 26.4065 18.5045C25.3228 15.0992 21.8348 12.9836 18.3737 13.6151C14.7293 14.2804 12.2015 17.4328 12.4196 21.1001C12.5451 23.2046 13.4554 24.9427 15.1068 26.2634C16.7532 27.5801 18.6506 28.0372 20.7044 27.7544C19.8299 28.6279 18.9554 29.5014 18.0789 30.3759C18.1008 30.4018 18.0759 30.3858 18.0739 30.3679C17.9753 29.589 17.4674 29.3151 16.7542 29.1328C16.1277 28.9725 15.5471 28.6209 14.9614 28.3221C14.7532 28.2155 14.5969 28.1757 14.3797 28.2912C14.0441 28.4705 13.6646 28.7723 13.3479 28.7245C13.0481 28.6787 12.8051 28.2524 12.5401 27.9914C12.2563 27.7125 11.9943 27.4078 11.6885 27.1558C11.4405 26.9516 11.4326 26.7614 11.6029 26.5303C12.0451 25.9307 12.0501 25.3879 11.6258 24.7225C11.2613 24.1508 11.1278 23.4347 10.8688 22.7923C10.8091 22.6439 10.6766 22.4835 10.5362 22.4188C10.1896 22.2594 9.66267 22.2515 9.49733 21.9965C9.30809 21.7037 9.42562 21.2096 9.41865 20.8033C9.41267 20.381 9.4047 19.9577 9.42661 19.5364C9.43159 19.4368 9.54613 19.2694 9.62681 19.2585C10.568 19.132 10.9704 18.5633 11.1676 17.6708C11.2951 17.0941 11.6806 16.5762 11.9226 16.0205C11.9853 15.875 11.9963 15.6649 11.9395 15.5195C11.8011 15.1639 11.6089 14.8282 11.4306 14.4687C12.0361 13.8641 12.6288 13.2625 13.2363 12.6769C13.2981 12.6181 13.4863 12.5972 13.5481 12.645C14.3011 13.2306 14.9913 13.1002 15.7632 12.6171C16.2662 12.3024 16.9006 12.2028 17.4654 11.9797C17.6118 11.9219 17.7632 11.7815 17.8309 11.64C17.9634 11.3621 18.0221 11.0494 18.1476 10.7675C18.1934 10.6659 18.3448 10.5484 18.4504 10.5454C19.1964 10.5265 19.9444 10.5424 20.6904 10.5305C20.8936 10.5275 20.9912 10.6012 21.0221 10.7894C21.1585 11.6082 21.5789 12.0763 22.4533 12.2446C23.0559 12.3601 23.6187 12.7247 24.1764 13.0215C24.4175 13.15 24.5928 13.1609 24.8238 13.0295C25.1346 12.8522 25.4653 12.7097 25.7651 12.5633C26.4174 13.2147 27.0499 13.8462 27.7033 14.4976C27.5499 14.8073 27.3955 15.146 27.2162 15.4707C27.1027 15.6768 27.1246 15.8332 27.2232 16.0513C27.5937 16.873 27.9363 17.7097 28.261 18.5503C28.3387 18.7525 28.4164 18.883 28.6316 18.9497C28.9961 19.0632 29.4891 19.113 29.6704 19.37C29.8537 19.63 29.7282 20.11 29.7311 20.4935C29.7351 20.9288 29.7471 21.364 29.7212 21.7973C29.7152 21.9048 29.5907 22.0821 29.5001 22.0961C28.6057 22.2335 28.1694 22.7475 27.9971 23.6289C27.8975 24.1379 27.5848 24.607 27.3537 25.0861C27.2113 25.3809 26.9214 25.6468 27.3716 26.0273H24.527L24.529 26.0303Z" fill="white"/>
<path d="M40.1075 16.739C40.7589 17.3894 41.3914 18.0199 42.0467 18.6732C41.8844 19.0029 41.6902 19.3505 41.5448 19.7161C41.491 19.8505 41.5069 20.0447 41.5627 20.1842C41.9053 21.0447 42.2609 21.9013 42.6324 22.7499C42.6961 22.8953 42.8356 23.0427 42.977 23.1094C43.2549 23.2419 43.5686 23.3007 43.8495 23.4272C43.9511 23.473 44.0646 23.6254 44.0676 23.7329C44.0866 24.478 44.0886 25.223 44.0666 25.968C44.0637 26.0815 43.9202 26.2728 43.8196 26.2887C42.9621 26.4261 42.5408 26.9062 42.3525 27.7608C42.22 28.3624 41.8565 28.9171 41.5677 29.4789C41.4671 29.6751 41.4342 29.8255 41.5448 30.0257C41.73 30.3604 41.8894 30.709 42.0457 31.0257C41.3904 31.6801 40.7579 32.3105 40.1045 32.9629C39.7848 32.8055 39.4352 32.6472 39.0996 32.4619C38.8984 32.3514 38.751 32.3982 38.5518 32.4858C37.7261 32.8504 36.8964 33.2109 36.0468 33.5147C35.5458 33.694 35.3187 33.5346 35.1345 33.0565C35.0458 32.8255 34.9612 32.5894 34.8456 32.3713C34.7012 32.0964 34.7102 31.9699 35.0717 31.9101C36.6414 31.6522 38.0089 30.9689 39.0876 29.7956C41.0398 27.6731 41.6224 25.1921 40.6623 22.481C39.6982 19.7579 37.6833 18.1852 34.8078 17.7579C33.521 17.5667 32.2849 17.7818 31.0847 18.2709C30.9104 18.3416 30.6784 18.3366 30.4891 18.2948C30.1754 18.226 29.8706 18.1085 29.5698 17.992C29.4662 17.9511 29.3477 17.8695 29.2999 17.7749C29.0788 17.3336 29.0768 17.2729 29.5349 17.0687C30.269 16.741 31.023 16.4551 31.7799 16.1832C32.001 16.1036 32.1385 16.0179 32.1993 15.7838C32.274 15.497 32.3666 15.2111 32.4901 14.9412C32.5369 14.8396 32.6873 14.7231 32.7939 14.7201C33.5399 14.7012 34.2869 14.7171 35.0329 14.7052C35.2351 14.7022 35.3337 14.7749 35.3646 14.9631C35.502 15.7809 35.9193 16.251 36.7948 16.4183C37.3974 16.5338 37.9601 16.8984 38.5169 17.1942C38.7569 17.3217 38.9322 17.3366 39.1633 17.2041C39.4741 17.0259 39.8047 16.8834 40.1045 16.736L40.1075 16.739Z" fill="white"/>
<path d="M30.9397 28.1653V24.2819H36.8809V28.4293H35.5512C35.2155 28.4293 34.8749 28.3924 34.5452 28.4363C33.7185 28.5478 33.0353 28.3526 32.5532 27.6345C32.4337 27.4562 32.2982 27.4542 32.113 27.5588C31.7485 27.7649 31.37 27.9452 30.9407 28.1643L30.9397 28.1653Z" fill="white"/>
<path d="M22.5372 24.8326H21.3779V22.492H17.7993V24.8177H16.614V21.3038H22.5372V24.8326Z" fill="white"/>
<path d="M19.5954 16.8466C20.6462 17.8954 21.7239 18.9711 22.8085 20.0518H16.3823C17.4431 18.993 18.5197 17.9193 19.5954 16.8466Z" fill="white"/>
<path d="M30.948 23.0358V21.8874H36.8762V23.0358H30.948Z" fill="white"/>
<path d="M20.1543 24.8327H19.0049V23.6813H20.1543V24.8327Z" fill="white"/>
<path d="M27.3484 39.184V40.3334H26.1551V39.1989C24.9898 38.9808 24.3613 38.3364 24.3823 37.3942H25.5297C25.6223 37.9081 25.9958 38.0097 26.4659 37.9768C26.7508 37.9569 27.0386 37.9818 27.3245 37.9699C27.699 37.9539 27.9499 37.697 27.94 37.3593C27.93 37.0366 27.686 36.7966 27.3284 36.7836C26.9679 36.7707 26.6063 36.7816 26.2458 36.7796C25.2229 36.7727 24.438 36.0874 24.3633 35.1382C24.2876 34.1781 24.945 33.3803 25.951 33.211C26.0087 33.201 26.0685 33.194 26.1482 33.1831V32.0337H27.3414V33.1671C28.5067 33.3843 29.1332 34.0267 29.1143 34.9719H27.9659C27.8752 34.457 27.5008 34.3564 27.0306 34.3892C26.7458 34.4092 26.4579 34.3843 26.1721 34.3962C25.7976 34.4121 25.5466 34.6691 25.5566 35.0058C25.5655 35.3285 25.8095 35.5695 26.1681 35.5825C26.5287 35.5954 26.8902 35.5844 27.2508 35.5864C28.2736 35.5934 29.0575 36.2767 29.1342 37.2269C29.2109 38.184 28.5545 38.9818 27.5466 39.1551C27.4878 39.1651 27.429 39.1721 27.3494 39.183L27.3484 39.184Z" fill="white"/>
</g>
<defs>
<clipPath id="clip0_275_2537">
<rect width="34.6938" height="34.6022" fill="white" transform="translate(9.38843 10.532)"/>
</clipPath>
</defs>
</svg>
