<svg width="54" height="54" viewBox="0 0 54 54" fill="none" xmlns="http://www.w3.org/2000/svg">
<rect x="0.384766" y="0.143066" width="53.5242" height="53.5242" rx="26.7621" fill="#0171FF"/>
<g clip-path="url(#clip0_275_2487)">
<path d="M41.4806 28.908L41.4807 28.908C42.4964 29.1983 43.2604 30.0601 43.3325 31.1282C43.3892 31.9694 43.3892 32.8207 43.3308 33.6612C43.3308 33.6613 43.3308 33.6613 43.3308 33.6613L43.2303 33.6544C43.163 34.6347 42.4118 35.7645 40.769 35.8957L41.4806 28.908ZM41.4806 28.908C41.3276 28.8644 41.1666 28.8372 41.0047 28.8097C40.9597 28.8021 40.9147 28.7945 40.8698 28.7865C40.8698 28.4968 40.8702 28.207 40.8707 27.9173C40.8716 27.2816 40.8725 26.6458 40.8697 26.0102C40.8612 23.8909 39.3127 22.334 37.2025 22.3246C36.6499 22.322 36.0967 22.3224 35.544 22.3228C35.2372 22.323 34.9305 22.3233 34.6242 22.323C34.5594 22.3224 34.4962 22.3187 34.4249 22.3145C34.4191 22.3141 34.4132 22.3138 34.4073 22.3134C34.4074 22.032 34.4078 21.7523 34.4081 21.474C34.409 20.7974 34.4099 20.1287 34.4065 19.4605C34.3961 17.4802 32.4095 16.253 30.6368 17.1294C30.4846 17.2045 30.3324 17.2804 30.1713 17.3607C30.0937 17.3993 30.0141 17.439 29.9314 17.4801M41.4806 28.908L29.9314 17.4801M29.9314 17.4801C29.9316 17.35 29.9319 17.2226 29.9323 17.0971C29.9332 16.7536 29.9341 16.4246 29.9313 16.0958C29.9266 15.5283 29.8055 15.0217 29.55 14.5954C29.294 14.1685 28.9068 13.8284 28.3805 13.5892L28.3805 13.5892C27.8615 13.3536 27.3624 13.2933 26.8855 13.388C26.4097 13.4825 25.9635 13.7296 25.5462 14.0967L25.5462 14.0968C22.4889 16.7879 19.4284 19.4749 16.362 22.1561C16.2599 22.2454 16.0964 22.3118 15.9657 22.3147C13.871 22.3547 12.3315 23.9023 12.3298 26.0072L29.9314 17.4801ZM13.5249 26.0746V26.0746C13.5244 28.8837 13.5246 31.6923 13.5247 34.5012C13.5248 35.9056 13.5249 37.3101 13.5249 38.7147C13.5249 38.8813 13.5251 39.0418 13.5494 39.1953C13.7514 40.4449 14.7166 41.2571 16.015 41.2571C19.8258 41.2582 23.6365 41.2578 27.4473 41.2574C29.3527 41.2572 31.2581 41.2571 33.1635 41.2571C33.5799 41.2571 33.9962 41.2576 34.4123 41.2581C35.3629 41.2594 36.313 41.2606 37.2636 41.2554C38.4795 41.2482 39.4405 40.4398 39.6327 39.2359L39.6327 39.2359C39.6817 38.929 39.6784 38.6162 39.6751 38.294C39.6739 38.1795 39.6726 38.0639 39.6737 37.9468C39.6737 37.9468 39.6738 37.9468 39.6738 37.9467L39.7745 37.9477C39.7786 37.4682 39.7778 36.9887 39.7769 36.4999L13.5249 26.0746ZM13.5249 26.0746C13.5249 25.2968 13.7793 24.6603 14.219 24.2186C14.6587 23.7769 15.2922 23.5215 16.0664 23.5215H16.1076H16.1487H16.1898H16.231H16.2721H16.3133H16.3544H16.3955H16.4367H16.4778H16.519H16.5601H16.6012H16.6424H16.6835H16.7247H16.7658H16.8069H16.8481H16.8892H16.9304H16.9715H17.0126H17.0538H17.0949H17.1361H17.1772H17.2183H17.2595H17.3006H17.3418H17.3829H17.424H17.4652H17.5063H17.5474H17.5886H17.6297H17.6709H17.712H17.7531H17.7943H17.8354H17.8766H17.9177H17.9588H18H18.0411H18.0823H18.1234H18.1645H18.2057H18.2468H18.288H18.3291H18.3702H18.4114H18.4525H18.4937H18.5348H18.5759H18.6171H18.6582H18.6993H18.7405H18.7816H18.8228H18.8639H18.905H18.9462H18.9873H19.0285H19.0696H19.1107H19.1519H19.193H19.2342H19.2753H19.3164H19.3576H19.3987H19.4399H19.481H19.5221H19.5633H19.6044H19.6456H19.6867H19.7278H19.769H19.8101H19.8512H19.8924H19.9335H19.9747H20.0158H20.0569H20.0981H20.1392H20.1804H20.2215H20.2626H20.3038H20.3449H20.3861H20.4272H20.4683H20.5095H20.5506H20.5918H20.6329H20.674H20.7152H20.7563H20.7975H20.8386H20.8797H20.9209H20.962H21.0031H21.0443H21.0854H21.1266H21.1677H21.2088H21.25H21.2911H21.3323H21.3734H21.4145H21.4557H21.4968H21.538H21.5791H21.6202H21.6614H21.7025H21.7437H21.7848H21.8259H21.8671H21.9082H21.9494H21.9905H22.0316H22.0728H22.1139H22.1551H22.1962H22.2373H22.2785H22.3196H22.3607H22.4019H22.443H22.4842H22.5253H22.5664H22.6076H22.6487H22.6899H22.731H22.7721H22.8133H22.8544H22.8956H22.9367H22.9778H23.019H23.0601H23.1013H23.1424H23.1835H23.2247H23.2658H23.307H23.3481H23.3892H23.4304H23.4715H23.5126H23.5538H23.5949H23.6361H23.6772H23.7183H23.7595H23.8006H23.8418H23.8829H23.924H23.9652H24.0063H24.0475H24.0886H24.1297H24.1709H24.212H24.2532H24.2943H24.3354H24.3766H24.4177H24.4589H24.5H24.5411H24.5823H24.6234H24.6645H24.7057H24.7468H24.788H24.8291H24.8702H24.9114H24.9525H24.9937H25.0348H25.0759H25.1171H25.1582H25.1994H25.2405H25.2816H25.3228H25.3639H25.4051H25.4462H25.4873H25.5285H25.5696H25.6108H25.6519H25.693H25.7342H25.7753H25.8164H25.8576H25.8987H25.9399H25.981H26.0221H26.0633H26.1044H26.1456H26.1867H26.2278H26.269H26.3101H26.3513H26.3924H26.4335H26.4747H26.5158H26.557H26.5981H26.6392H26.6804H26.7215H26.7627H26.8038H26.8449H26.8861H26.9272H26.9684H27.0095H27.0506H27.0918H27.1329H27.174H27.2152H27.2563H27.2975H27.3386H27.3797H27.4209H27.462H27.5032H27.5443H27.5854H27.6266H27.6677H27.7089H27.75H27.7911H27.8323H27.8734H27.9146H27.9557H27.9968H28.038H28.0791H28.1203H28.1614H28.2025H28.2437H28.2848H28.3259H28.3671H28.4082H28.4494H28.4905H28.5316H28.5728H28.6139H28.6551H28.6962H28.7373H28.7785H28.8196H28.8608H28.9019H28.943H28.9842H29.0253H29.0665H29.1076H29.1487H29.1899H29.231H29.2722H29.3133H29.3544H29.3956H29.4367H29.4778H29.519H29.5601H29.6013H29.6424H29.6835H29.7247H29.7658H29.807H29.8481H29.8892H29.9304H29.9715H30.0127H30.0538H30.0949H30.1361H30.1772H30.2184H30.2595H30.3006H30.3418H30.3829H30.4241H30.4652H30.5063H30.5475H30.5886H30.6297H30.6709H30.712H30.7532H30.7943H30.8354H30.8766H30.9177H30.9589H31H31.0411H31.0823H31.1234H31.1646H31.2057H31.2468H31.288H31.3291H31.3703H31.4114H31.4525H31.4937H31.5348H31.576H31.6171H31.6582H31.6994H31.7405H31.7817H31.8228H31.8639H31.9051H31.9462H31.9873H32.0285H32.0696H32.1108H32.1519H32.193H32.2342H32.2753H32.3165H32.3576H32.3987H32.4399H32.481H32.5222H32.5633H32.6044H32.6456H32.6867H32.7279H32.769H32.8101H32.8513H32.8924H32.9336H32.9747H33.0158H33.057H33.0981H33.1392H33.1804H33.2215H33.2627H33.3038H33.3449H33.3861H33.4272H33.4684H33.5095H33.5506H33.5918H33.6329H33.6741H33.7152H33.7563H33.7975H33.8386H33.8798H33.9209H33.962H34.0032H34.0443H34.0855H34.1266H34.1677H34.2089H34.25H34.2911H34.3323H34.3734H34.4146H34.4557H34.4968H34.538H34.5791H34.6203H34.6614H34.7025H34.7437H34.7848H34.826H34.8671H34.9082H34.9494H34.9905H35.0317H35.0728H35.1139H35.1551H35.1962H35.2374H35.2785H35.3196H35.3608H35.4019H35.443H35.4842H35.5253H35.5665H35.6076H35.6487H35.6899H35.731H35.7722H35.8133H35.8544H35.8956H35.9367H35.9779H36.019H36.0601H36.1013H36.1424H36.1836H36.2247H36.2658H36.307H36.3481H36.3893H36.4304H36.4715H36.5127H36.5538H36.5949H36.6361H36.6772H36.7184H36.7595H36.8006H36.8418H36.8829H36.9241H36.9652H37.0063H37.0475H37.0886H37.1298C37.9049 23.5215 38.5388 23.7765 38.979 24.2176C39.4193 24.6588 39.6742 25.2944 39.6754 26.0714C39.676 26.6896 39.6758 27.3082 39.6756 27.9374C39.6755 28.2231 39.6754 28.511 39.6754 28.802M13.5249 26.0746L39.6754 28.802M39.6754 28.802C39.1925 28.8019 38.7133 28.8013 38.2367 28.8007C37.0568 28.7991 35.8927 28.7976 34.7285 28.8045H34.7284C34.1882 28.8079 33.7263 28.9432 33.3509 29.2096C32.9756 29.476 32.6941 29.8682 32.5055 30.3733C32.4545 30.5095 32.404 30.6542 32.3733 30.8033L32.3732 30.8036C32.1492 31.9069 32.1266 33.0178 32.4135 34.1173L32.511 34.0918L32.4135 34.1173C32.573 34.7285 32.8576 35.1952 33.2693 35.5088C33.6807 35.8222 34.2089 35.9748 34.8417 35.9765C35.8954 35.9794 36.9496 35.9787 38.0038 35.978C38.472 35.9776 38.9403 35.9773 39.4084 35.9773H39.4091H39.4097H39.4104H39.411H39.4117H39.4123H39.413H39.4136H39.4143H39.4149H39.4156H39.4162H39.4169H39.4176H39.4182H39.4189H39.4195H39.4202H39.4208H39.4215H39.4221H39.4228H39.4234H39.4241H39.4247H39.4254H39.426H39.4267H39.4273H39.428H39.4286H39.4293H39.43H39.4306H39.4313H39.4319H39.4326H39.4332H39.4339H39.4345H39.4352H39.4358H39.4365H39.4371H39.4378H39.4384H39.4391H39.4398H39.4404H39.4411H39.4417H39.4424H39.443H39.4437H39.4443H39.445H39.4457H39.4463H39.447H39.4476H39.4483H39.4489H39.4496H39.4502H39.4509H39.4516H39.4522H39.4529H39.4535H39.4542H39.4548H39.4555H39.4561H39.4568H39.4575H39.4581H39.4588H39.4594H39.4601H39.4607H39.4614H39.4621H39.4627H39.4634H39.464H39.4647H39.4654H39.466H39.4667H39.4673H39.468H39.4687H39.4693H39.47H39.4706H39.4713H39.472H39.4726H39.4733H39.4739H39.4746H39.4753H39.4759H39.4766H39.4772H39.4779H39.4786H39.4792H39.4799H39.4805H39.4812H39.4819H39.4825H39.4832H39.4839H39.4845H39.4852H39.4859H39.4865H39.4872H39.4878H39.4885H39.4892H39.4898H39.4905H39.4912H39.4918H39.4925H39.4932H39.4938H39.4945H39.4952H39.4958H39.4965H39.4972H39.4978H39.4985H39.4992H39.4998H39.5005H39.5012H39.5018H39.5025H39.5032H39.5038H39.5045H39.5052H39.5059H39.5065H39.5072H39.5079H39.5085H39.5092H39.5099H39.5106H39.5112H39.5119H39.5126H39.5132H39.5139H39.5146H39.5153H39.5159H39.5166H39.5173H39.518H39.5186H39.5193H39.52H39.5207H39.5213H39.522H39.5227H39.5234H39.524H39.5247H39.5254H39.5261H39.5267H39.5274H39.5281H39.5288H39.5295H39.5301H39.5308H39.5315H39.5322H39.5329H39.5335H39.5342H39.5349H39.5356H39.5363H39.5369H39.5376H39.5383H39.539H39.5397H39.5404H39.541H39.5417H39.5424H39.5431H39.5438H39.5445H39.5451H39.5458H39.5465H39.5472H39.5479H39.5486H39.5493H39.55H39.5506H39.5513H39.552H39.5527H39.5534H39.5541H39.5548H39.5555H39.5562H39.5568H39.5575H39.5582H39.5589H39.5596H39.5603H39.561H39.5617H39.5624H39.5631H39.5638H39.5645H39.5652H39.5659H39.5666H39.5673H39.5679H39.5686H39.5693H39.57H39.5707H39.5714H39.5721H39.5728H39.5735H39.5742H39.5749H39.5756H39.5763H39.577H39.5777H39.5784H39.5791H39.5798H39.5805H39.5813H39.582H39.5827H39.5834H39.5841H39.5848H39.5855H39.5862H39.5869H39.5876H39.5883H39.589H39.5897H39.5904H39.5911H39.5918H39.5926H39.5933H39.594H39.5947H39.5954H39.5961H39.5968H39.5975H39.5983H39.599H39.5997H39.6004H39.6011H39.6018H39.6025H39.6033H39.604H39.6047H39.6054H39.6061H39.6068H39.6076H39.6083H39.609H39.6097H39.6104H39.6112H39.6119H39.6126H39.6133H39.614H39.6148H39.6155H39.6162H39.6169H39.6177H39.6184H39.6191H39.6198H39.6206H39.6213H39.622H39.6227H39.6235H39.6242H39.6249H39.6257H39.6264H39.6271H39.6279H39.6286H39.6293H39.6301H39.6308H39.6315H39.6323H39.633H39.6337H39.6345H39.6352H39.6359H39.6367H39.6374H39.6381H39.6389H39.6396H39.6404H39.6411H39.6418H39.6426H39.6433H39.6441H39.6448H39.6456H39.6463H39.647H39.6478H39.6485H39.6493H39.65H39.6508H39.6515H39.6523H39.653H39.6538H39.6545H39.6553H39.656H39.6568H39.6575H39.6583H39.659H39.6598H39.6605H39.6613H39.662H39.6628H39.6635H39.6643H39.6651H39.6658H39.6666H39.6673H39.6681H39.6688H39.6696H39.6704H39.6711H39.6719H39.6727H39.6734H39.6742H39.6749H39.6754L39.6754 28.802ZM40.8707 36.1833C40.8704 36.1178 40.8701 36.0525 40.8699 35.9876L37.4386 42.3506C39.0706 42.2892 40.5025 41.0498 40.7001 39.4278C40.773 38.828 40.7697 38.219 40.7663 37.6099C40.7648 37.3457 40.7634 37.0814 40.7682 36.8179L40.8689 36.8198C40.8689 36.8198 40.8689 36.8198 40.8689 36.8197C40.8729 36.6076 40.8718 36.3943 40.8707 36.1833ZM12.3298 26.0073C12.3256 30.2625 12.3273 34.5177 12.3331 38.7754L12.3298 26.0073ZM20.1813 22.3188L20.1806 22.3188C19.5812 22.3233 18.9814 22.3229 18.3392 22.3224C18.2275 22.3223 18.1146 22.3223 18.0002 22.3222C18.5162 21.8679 18.9836 21.4565 19.4517 21.0451C20.0634 20.5081 20.6752 19.9712 21.287 19.4344C22.98 17.9487 24.6732 16.4629 26.3641 14.9744C26.5989 14.7681 26.8397 14.6302 27.0889 14.575C27.3364 14.5202 27.5995 14.5451 27.884 14.6764C28.1752 14.811 28.3858 14.9966 28.5247 15.2246C28.6638 15.453 28.7346 15.7302 28.7362 16.0531V16.0531C28.7375 16.3 28.7371 16.5482 28.7366 16.7968C28.736 17.1612 28.7354 17.5266 28.7403 17.8902C28.741 17.9708 28.7315 18.0198 28.7122 18.0557C28.6939 18.0897 28.6603 18.1241 28.587 18.1605C26.741 19.0782 24.8967 19.9997 23.0527 20.9211C22.1678 21.3633 21.2829 21.8055 20.3978 22.2472L20.3977 22.2473C20.3147 22.2888 20.2417 22.3188 20.1813 22.3188ZM34.8412 29.9988H34.8413L40.7092 29.8981L40.7089 29.9988C40.709 29.9988 40.709 29.9988 40.709 29.9988C41.1399 30 41.4996 30.1504 41.7522 30.4022C42.0049 30.654 42.1564 31.0131 42.1599 31.4429C42.1649 32.0648 42.1633 32.686 42.1599 33.3084C42.1572 33.7511 42.0071 34.1164 41.7548 34.3711C41.5025 34.6257 41.1413 34.7769 40.703 34.7788C40.016 34.7817 39.3287 34.781 38.6411 34.7803C38.3491 34.78 38.0571 34.7797 37.765 34.7797L37.7641 34.7788H37.7225C37.4336 34.7788 37.1446 34.7791 36.8558 34.7793C36.1822 34.7798 35.5088 34.7803 34.8357 34.778C34.4566 34.7768 34.1824 34.7017 33.9827 34.5476C33.7835 34.3939 33.6437 34.1502 33.5571 33.7808C33.3406 32.8545 33.3399 31.9165 33.5587 30.9904L33.5587 30.9904C33.6457 30.6218 33.7855 30.3793 33.9849 30.2266C34.1849 30.0735 34.4599 29.9992 34.8412 29.9988ZM33.1981 19.2775L33.1981 19.2776C33.2162 20.0058 33.2124 20.7336 33.2087 21.4731C33.2073 21.7504 33.2058 22.0293 33.2055 22.3105H22.9482C23.7452 21.9121 24.5424 21.5138 25.3395 21.1156C27.2352 20.1687 29.131 19.2217 31.0246 18.2711L30.9794 18.181L31.0246 18.2711C31.4265 18.0693 31.8123 17.9727 32.2339 18.103L32.234 18.103C32.7708 18.2679 33.1852 18.7418 33.1981 19.2775Z" fill="white" stroke="white" stroke-width="0.201518"/>
<path d="M37.8762 21.7413C37.4876 21.4503 37.0994 21.1589 36.7111 20.8673C36.5444 20.7422 36.3777 20.6171 36.211 20.492C35.6341 20.0587 35.644 19.7407 36.2575 19.3738L37.6037 16.5445C37.6501 16.5442 37.6974 16.5439 37.7461 16.5437C37.7462 16.5506 37.7462 16.5574 37.7463 16.5641C37.747 16.6349 37.7475 16.6918 37.7448 16.7502L37.8455 16.7548M37.8762 21.7413L37.8158 21.8219M37.8762 21.7413C38.2074 21.9895 38.3386 21.9928 38.6847 21.7538L37.8762 21.7413ZM37.8158 21.8219C37.4271 21.5309 37.0389 21.2394 36.6505 20.9479C36.4839 20.8228 36.3172 20.6977 36.1505 20.5726L36.1505 20.5726C36.0024 20.4613 35.8862 20.3533 35.8073 20.2456C35.728 20.1372 35.6825 20.0234 35.6872 19.904C35.6919 19.7844 35.7464 19.6754 35.8349 19.5755C35.9227 19.4765 36.0481 19.3817 36.2058 19.2874L36.2058 19.2873C37.0622 18.7752 37.5704 18.0365 37.721 17.0493L37.721 17.0491C37.7349 16.9592 37.7393 16.8675 37.7439 16.7694C37.7442 16.7629 37.7445 16.7565 37.7449 16.75L37.8455 16.7548M37.8158 21.8219C37.9815 21.9461 38.1203 22.0284 38.2732 22.031C38.4258 22.0336 38.5689 21.9562 38.742 21.8367M37.8158 21.8219L38.742 21.8367M37.8455 16.7548C37.8452 16.7617 37.8448 16.7686 37.8445 16.7755C37.8399 16.8723 37.8353 16.9691 37.8206 17.0644L37.847 16.5596C37.8477 16.6325 37.8483 16.6937 37.8455 16.7548ZM38.742 21.8367C40.1889 20.8381 41.1581 19.4917 41.6144 17.7886C41.6938 17.4928 41.7482 17.1874 41.8028 16.8811C41.8228 16.7686 41.8429 16.656 41.8642 16.5437C41.9011 16.5439 41.9382 16.5442 41.9754 16.5444C42.1181 16.5455 42.2623 16.5466 42.4048 16.5426L42.405 16.5426C42.7779 16.5316 43.0686 16.3584 43.2413 16.0203C43.4158 15.6796 43.3846 15.339 43.1604 15.0356L38.742 21.8367ZM41.9024 15.3472C41.9418 15.3473 41.9821 15.3474 42.0235 15.3474C42.0231 15.3468 42.0227 15.3462 42.0223 15.3456C41.9909 15.298 41.967 15.2619 41.9413 15.2274L41.9024 15.3472ZM41.9024 15.3472C41.8879 15.3257 41.8747 15.3067 41.8605 15.2877L41.8604 15.2874C41.7455 15.1327 41.6307 14.9779 41.5159 14.8231C41.0009 14.1287 40.486 13.4346 39.9695 12.7417L39.9695 12.7416C39.9156 12.6693 39.8722 12.6212 39.8357 12.5917C39.7998 12.5628 39.7784 12.5581 39.7664 12.5581C39.7543 12.5581 39.7329 12.5628 39.6971 12.5917C39.6606 12.6212 39.6171 12.6693 39.5633 12.7416L39.5633 12.7416C39.1435 13.3052 38.7256 13.8706 38.3076 14.4359C38.1588 14.6373 38.0099 14.8386 37.861 15.0399C37.7898 15.1365 37.7186 15.2331 37.6348 15.3475H37.6356H37.6372H37.6389H37.6405H37.6422H37.6438H37.6454H37.6471H37.6487H37.6504H37.652H37.6536H37.6553H37.6569H37.6585H37.6602H37.6618H37.6634H37.6651H37.6667H37.6683H37.6699H37.6716H37.6732H37.6748H37.6764H37.6781H37.6797H37.6813H37.6829H37.6845H37.6861H37.6878H37.6894H37.691H37.6926H37.6942H37.6958H37.6974H37.699H37.7006H37.7022H37.7038H37.7055H37.7071H37.7087H37.7103H37.7119H37.7135H37.7151H37.7166H37.7182H37.7198H37.7214H37.723H37.7246H37.7262H37.7278H37.7294H37.731H37.7326H37.7341H37.7357H37.7373H37.7389H37.7405H37.7421H37.7436H37.7452H37.7468H37.7484H37.75H37.7515H37.7531H37.7547H37.7563H37.7578H37.7594H37.761H37.7625H37.7641H37.7657H37.7672H37.7688H37.7704H37.7719H37.7735H37.7751H37.7766H37.7782H37.7797H37.7813H37.7829H37.7844H37.786H37.7875H37.7891H37.7906H37.7922H37.7937H37.7953H37.7968H37.7984H37.7999H37.8015H37.803H37.8046H37.8061H37.8077H37.8092H37.8108H37.8123H37.8139H37.8154H37.8169H37.8185H37.82H37.8215H37.8231H37.8246H37.8262H37.8277H37.8292H37.8308H37.8323H37.8338H37.8354H37.8369H37.8384H37.8399H37.8415H37.843H37.8445H37.846H37.8476H37.8491H37.8506H37.8521H37.8537H37.8552H37.8567H37.8582H37.8597H37.8613H37.8628H37.8643H37.8658H37.8673H37.8688H37.8704H37.8719H37.8734H37.8749H37.8764H37.8779H37.8794H37.8809H37.8824H37.8839H37.8855H37.887H37.8885H37.89H37.8915H37.893H37.8945H37.896H37.8975H37.899H37.9005H37.902H37.9035H37.905H37.9065H37.908H37.9095H37.911H37.9125H37.914H37.9155H37.917H37.9184H37.9199H37.9214H37.9229H37.9244H37.9259H37.9274H37.9289H37.9304H37.9319H37.9333H37.9348H37.9363H37.9378H37.9393H37.9408H37.9423H37.9437H37.9452H37.9467H37.9482H37.9497H37.9511H37.9526H37.9541H37.9556H37.9571H37.9585H37.96H37.9615H37.963H37.9644H37.9659H37.9674H37.9689H37.9703H37.9718H37.9733H37.9748H37.9762H37.9777H37.9792H37.9806H37.9821H37.9836H37.985H37.9865H37.988H37.9894H37.9909H37.9924H37.9938H37.9953H37.9968H37.9982H37.9997H38.0012H38.0026H38.0041H38.0055H38.007H38.0085H38.0099H38.0114H38.0129H38.0143H38.0158H38.0172H38.0187H38.0201H38.0216H38.0231H38.0245H38.026H38.0274H38.0289H38.0303H38.0318H38.0332H38.0347H38.0361H38.0376H38.0391H38.0405H38.042H38.0434H38.0449H38.0463H38.0478H38.0492H38.0507H38.0521H38.0536H38.055H38.0564H38.0579H38.0593H38.0608H38.0622H38.0637H38.0651H38.0666H38.068H38.0695H38.0709H38.0724H38.0738H38.0752H38.0767H38.0781H38.0796H38.081H38.0824H38.0839H38.0853H38.0868H38.0882H38.0897H38.0911H38.0925H38.094H38.0954H38.0969H38.0983H38.0997H38.1012H38.1026H38.104H38.1055H38.1069H38.1084H38.1098H38.1112H38.1127H38.1141H38.1155H38.117H38.1184H38.1198H38.1213H38.1227H38.1241H38.1256H38.127H38.1284H38.1299H38.1313H38.1327H38.1342H38.1356H38.137H38.1385H38.1399H38.1413H38.1428H38.1442H38.1456H38.1471H38.1485H38.1499H38.1514H38.1528H38.1542H38.1556H38.1571H38.1585H38.1599H38.1614H38.1628H38.1642H38.1656H38.1671H38.1685H38.1699H38.1714H38.1728H38.1742H38.1756H38.1771H38.1785H38.1799H38.1814H38.1828H38.1842H38.1856H38.1871H38.1885H38.1899H38.1913H38.1928H38.1942H38.1956H38.1971H38.1985H38.1999H38.2013H38.2028H38.2042H38.2056H38.207H38.2085H38.2099H38.2113H38.2127H38.2142H38.2156H38.217H38.2184H38.2199H38.2213H38.2227H38.2241H38.2256H38.227H38.2284H38.2298H38.2301C38.3991 15.3479 38.5508 15.3918 38.6661 15.4862C38.7826 15.5816 38.8516 15.7204 38.8688 15.8896L38.8688 15.8896C38.9102 16.2986 38.9506 16.7295 38.9061 17.1481L38.9061 17.1482C38.7829 18.2963 38.2397 19.2236 37.3397 19.9676C37.674 20.2183 37.9862 20.4528 38.2944 20.6845C38.3172 20.6693 38.3335 20.6583 38.3506 20.6447L38.3506 20.6447C39.8202 19.4775 40.5908 17.9584 40.666 16.0817L40.666 16.0817C40.6757 15.8395 40.7202 15.6473 40.8478 15.5193C40.9764 15.3904 41.1664 15.3492 41.4059 15.3475C41.5444 15.3464 41.6836 15.3467 41.8355 15.3471C41.8575 15.3471 41.8798 15.3472 41.9024 15.3472ZM36.2923 15.9963C36.4627 16.3463 36.7603 16.5325 37.1488 16.5426L43.1604 15.0356C43.0014 14.8202 42.8426 14.6046 42.6837 14.3889C42.0684 13.5534 41.4524 12.717 40.8218 11.8922L40.8218 11.8922C40.2716 11.1736 39.2549 11.1772 38.7092 11.8941C38.0761 12.7254 37.4559 13.5666 36.8362 14.4072C36.6874 14.609 36.5387 14.8107 36.3898 15.0123L36.4708 15.0722L36.3899 15.0122C36.1669 15.3131 36.1255 15.6544 36.2923 15.9963Z" fill="white" stroke="white" stroke-width="0.201518"/>
<path d="M34.2064 32.3745L34.2064 32.3745L38.2826 32.3859H38.3833V32.3857V32.385V32.3849C38.3816 31.2301 37.4382 30.291 36.2841 30.2953L36.2841 30.2953C35.1453 30.2997 34.2125 31.2345 34.2064 32.3745ZM36.2847 33.2837L36.2847 33.2837C35.7906 33.2785 35.3867 32.8554 35.4023 32.3576C35.418 31.8735 35.8332 31.4819 36.3185 31.4938C36.8007 31.5065 37.1955 31.9194 37.1874 32.4056C37.1784 32.8892 36.7679 33.2889 36.2847 33.2837Z" fill="white" stroke="white" stroke-width="0.201518"/>
</g>
<defs>
<clipPath id="clip0_275_2487">
<rect width="30.8471" height="30.8994" fill="white" transform="translate(12.4277 11.4554)"/>
</clipPath>
</defs>
</svg>
