<svg width="55" height="54" viewBox="0 0 55 54" fill="none" xmlns="http://www.w3.org/2000/svg">
<rect x="0.542236" y="0.143066" width="53.5242" height="53.5242" rx="26.7621" fill="#0171FF"/>
<g clip-path="url(#clip0_275_2502)">
<path d="M12.5852 19.1002C12.8246 18.5797 13.2367 18.3957 13.7966 18.4326C14.2552 18.4632 14.7179 18.4383 15.179 18.4391C15.857 18.4391 16.1743 18.7122 16.2747 19.4111C16.3671 19.3693 16.453 19.3347 16.5342 19.293C18.1399 18.4559 19.7481 17.6229 21.3491 16.7763C21.709 16.5859 22.0463 16.5497 22.4407 16.6726C23.816 17.1 25.1984 17.504 26.5825 17.9017C26.7134 17.9394 26.9022 17.9137 27.0187 17.843C31.877 14.8869 38.1699 17.647 39.268 23.2219C40.1806 27.8544 36.8252 32.3745 32.122 32.822C29.4711 33.0742 27.2155 32.2219 25.3695 30.3004C25.2466 30.1719 25.1374 30.135 24.9566 30.1462C24.4875 30.1759 24.016 30.1679 23.5445 30.1687C21.19 30.1695 18.8356 30.1687 16.4812 30.1687C16.4217 30.1687 16.3615 30.1687 16.2538 30.1687C16.2538 30.433 16.2538 30.6892 16.2538 30.9447C16.2514 31.6098 15.8972 31.9705 15.2393 31.9729C14.7581 31.9745 14.2761 31.9488 13.7966 31.9793C13.2367 32.0146 12.8254 31.8315 12.5852 31.3118V30.8306C12.8254 30.3117 13.2367 30.1117 13.7966 30.1655C14.0094 30.1856 14.2263 30.1687 14.4352 30.1687V20.2441C13.7435 20.2135 12.9579 20.4481 12.586 19.5814V19.1002H12.5852ZM26.7946 29.171C28.6751 31.1848 32.0384 31.7737 34.6933 30.0683C37.3345 28.3709 38.3354 24.9891 37.0357 22.1446C35.7287 19.2841 32.526 17.8013 29.5298 18.6905C26.2692 19.6577 24.8852 22.6612 25.0032 24.7497C27.0548 25.0204 28.116 27.4367 26.7954 29.171H26.7946ZM16.2538 28.3637H16.6153C18.0379 28.3637 19.4614 28.3637 20.884 28.3637C22.1267 28.3637 23.3694 28.3637 24.612 28.3637C25.0233 28.3637 25.3318 28.1878 25.4989 27.8118C25.7696 27.2054 25.3157 26.5619 24.6153 26.5603C22.8617 26.5555 21.1081 26.5563 19.3545 26.5603C18.9456 26.5611 18.6299 26.4125 18.4508 26.0374C18.2701 25.659 18.36 25.3184 18.6267 25.01C19.6445 23.8364 20.6599 22.6612 21.6792 21.4892C21.9379 21.1911 22.2608 21.0803 22.652 21.1855C23.0456 21.2916 23.4416 21.3896 23.7895 21.4779C24.2473 20.759 24.6851 20.0714 25.1261 19.3781C25.1213 19.3749 25.0996 19.354 25.0739 19.346C24.1156 19.0592 23.1581 18.7692 22.1965 18.4945C22.0985 18.4664 21.962 18.5017 21.8664 18.5515C20.0622 19.4858 18.2628 20.428 16.4579 21.3614C16.302 21.4418 16.249 21.5333 16.2506 21.706C16.2578 22.8989 16.2546 24.091 16.2546 25.2839C16.2546 26.2952 16.2546 27.3066 16.2546 28.3613L16.2538 28.3637ZM23.2874 23.2347C22.9067 23.1073 22.5934 23.1862 22.3476 23.4717C22.2295 23.6082 22.1106 23.744 21.9933 23.8805C21.7563 24.1569 21.5194 24.434 21.2639 24.7328H23.146C23.1942 24.2236 23.24 23.736 23.2882 23.2347H23.2874Z" fill="white"/>
<path d="M30.3856 39.3932C30.3856 39.1763 30.3856 38.9586 30.3856 38.7417C30.3856 37.6195 30.384 36.4973 30.3856 35.3751C30.3864 34.7863 30.7495 34.3823 31.2765 34.3774C31.8147 34.3718 32.1874 34.7799 32.1882 35.3856C32.1906 36.6274 32.1882 37.8701 32.1882 39.1128C32.1882 39.2084 32.1882 39.3048 32.1882 39.4004C32.2171 39.4165 32.2452 39.4333 32.2742 39.4494C32.5874 39.1168 32.8895 38.7746 33.2164 38.4557C33.5064 38.173 33.937 38.132 34.2744 38.3176C34.6061 38.4999 34.7981 38.871 34.7097 39.2582C34.6672 39.443 34.5651 39.639 34.4326 39.7747C33.6221 40.6069 32.7995 41.4279 31.9721 42.244C31.5384 42.6722 31.0251 42.6658 30.5921 42.2368C29.7743 41.4255 28.9598 40.611 28.1485 39.7924C27.7549 39.3956 27.7364 38.8373 28.0906 38.4758C28.4553 38.1039 29.0208 38.12 29.4289 38.5232C29.7277 38.8188 30.0153 39.1257 30.3077 39.4277L30.384 39.3932H30.3856Z" fill="white"/>
<path d="M21.3414 36.5544C21.4249 36.417 21.482 36.3286 21.535 36.2371C22.1559 35.1623 22.7753 34.0859 23.3986 33.0119C23.6444 32.5877 23.9906 32.4231 24.4228 32.5106C25.0172 32.6311 25.3016 33.2978 24.9819 33.8617C24.3746 34.9333 23.7545 35.9969 23.1391 37.0645C23.0741 37.1769 23.0114 37.2902 22.9182 37.4573C23.0926 37.4171 23.2211 37.3914 23.348 37.3577C23.6573 37.2749 23.9641 37.1809 24.275 37.1062C24.7762 36.9857 25.2646 37.2661 25.3867 37.7312C25.5145 38.2164 25.259 38.6919 24.7578 38.8357C23.883 39.0863 23.001 39.3145 22.1222 39.5514C21.8515 39.6245 21.5824 39.7016 21.3101 39.7683C20.759 39.9033 20.3059 39.6446 20.1549 39.0936C19.8424 37.9545 19.5372 36.8138 19.2376 35.6724C19.1058 35.1703 19.3773 34.6915 19.8489 34.559C20.3308 34.4232 20.8048 34.6755 20.959 35.1743C21.094 35.6097 21.2032 36.0539 21.3406 36.5552L21.3414 36.5544Z" fill="white"/>
<path d="M41.2342 36.5591C41.3603 36.0892 41.4655 35.6867 41.5756 35.2851C41.7306 34.7171 42.1821 34.4231 42.697 34.5525C43.2063 34.6802 43.4689 35.167 43.3203 35.7317C43.0271 36.8443 42.7299 37.956 42.4263 39.0661C42.2648 39.6566 41.8206 39.912 41.2334 39.757C40.1208 39.4638 39.0091 39.1674 37.8989 38.8661C37.3407 38.7151 37.0523 38.2436 37.188 37.7287C37.3166 37.2411 37.813 36.984 38.3584 37.1238C38.7649 37.2282 39.1714 37.3335 39.5778 37.4379C39.5859 37.4403 39.5963 37.4315 39.6292 37.4186C39.5786 37.3246 39.5304 37.2322 39.4782 37.1423C38.8492 36.049 38.2179 34.9565 37.5905 33.8624C37.3921 33.517 37.4001 33.1692 37.6355 32.8463C37.866 32.529 38.1938 32.4358 38.5681 32.5153C38.8629 32.578 39.0476 32.7804 39.1938 33.0351C39.806 34.1034 40.4237 35.1694 41.0398 36.2354C41.0928 36.3269 41.1491 36.4161 41.235 36.5591H41.2342Z" fill="white"/>
<path d="M33.3519 22.2646C33.2796 22.6518 33.1334 22.9209 32.8233 23.088C32.5044 23.2607 32.1984 23.2157 31.8803 23.0534C31.6754 22.949 31.4401 22.8695 31.2144 22.8582C31.1019 22.8526 30.9453 23.0076 30.8818 23.1281C30.8553 23.1787 30.9951 23.3667 31.0979 23.427C31.3124 23.5523 31.5549 23.6262 31.7807 23.7338C32.0691 23.872 32.3687 23.9957 32.6322 24.1716C34.1351 25.1789 34.0194 27.2739 32.4169 28.119C32.2434 28.2105 32.1502 28.3021 32.1221 28.5126C32.0683 28.911 31.7028 29.1994 31.3011 29.2171C30.877 29.2355 30.493 28.9825 30.399 28.5752C30.3516 28.3688 30.2592 28.2877 30.064 28.2266C29.8094 28.1463 29.562 28.0258 29.3322 27.8876C28.888 27.6217 28.7579 27.0916 29.0077 26.6634C29.2495 26.2505 29.7564 26.1228 30.2151 26.3196C30.5131 26.4473 30.8312 26.5461 31.1493 26.604C31.2979 26.6313 31.4931 26.567 31.6272 26.4811C31.9759 26.2569 31.9839 25.8995 31.6337 25.681C31.3397 25.4978 31.0031 25.3838 30.689 25.2303C30.4472 25.1123 30.1958 25.0038 29.9749 24.852C28.6792 23.9587 28.7627 22.1224 30.1211 21.3264C30.2311 21.2621 30.3323 21.1255 30.3677 21.0018C30.489 20.5793 30.8079 20.2965 31.224 20.2885C31.6505 20.2805 32.0192 20.5327 32.1124 20.9488C32.1526 21.1271 32.2442 21.185 32.3855 21.2565C32.5984 21.3641 32.8266 21.4742 32.9864 21.6421C33.1479 21.8116 33.2338 22.0533 33.3527 22.263L33.3519 22.2646Z" fill="white"/>
</g>
<defs>
<clipPath id="clip0_275_2502">
<rect width="30.7764" height="25.9615" fill="white" transform="translate(12.5852 16.6006)"/>
</clipPath>
</defs>
</svg>
