<svg width="58" height="56" viewBox="0 0 58 56" fill="none" xmlns="http://www.w3.org/2000/svg">
<rect x="0.94043" y="0.156586" width="56.371" height="54.9256" rx="10.1179" fill="#FE0968"/>
<mask id="mask0_275_2676" style="mask-type:alpha" maskUnits="userSpaceOnUse" x="11" y="10" width="35" height="35">
<rect x="11.0591" y="10.2744" width="34.6898" height="34.6898" fill="#D9D9D9"/>
</mask>
<g mask="url(#mask0_275_2676)">
<path d="M19.7317 42.0735C18.5272 42.0735 17.5034 41.6519 16.6602 40.8088C15.8171 39.9656 15.3955 38.9418 15.3955 37.7373V33.4011H19.7317V13.1653H41.4129V37.7373C41.4129 38.9418 40.9913 39.9656 40.1482 40.8088C39.305 41.6519 38.2812 42.0735 37.0767 42.0735H19.7317ZM37.0767 39.1827C37.4862 39.1827 37.8295 39.0442 38.1065 38.7671C38.3836 38.4901 38.5221 38.1468 38.5221 37.7373V16.0561H22.6226V33.4011H35.6313V37.7373C35.6313 38.1468 35.7698 38.4901 36.0468 38.7671C36.3238 39.0442 36.6671 39.1827 37.0767 39.1827ZM24.068 23.2832V20.3924H37.0767V23.2832H24.068ZM24.068 27.6194V24.7286H37.0767V27.6194H24.068Z" fill="#FAFAFA"/>
</g>
</svg>
